<svg xmlns="http://www.w3.org/2000/svg" xmlns:xlink="http://www.w3.org/1999/xlink" width="3000" zoomAndPan="magnify" viewBox="0 0 2250 2250.000011" height="3000" preserveAspectRatio="xMidYMid meet" version="1.0"><defs><g/><clipPath id="c8b5830a5f"><path d="M 668.785156 790 L 1168 790 L 1168 1151 L 668.785156 1151 Z M 668.785156 790 " clip-rule="nonzero"/></clipPath><clipPath id="3f90725db4"><path d="M 1083 697.070312 L 1581.132812 697.070312 L 1581.132812 1059 L 1083 1059 Z M 1083 697.070312 " clip-rule="nonzero"/></clipPath><clipPath id="eb6dcbff29"><path d="M 1037 907 L 1068.445312 907 L 1068.445312 1046 L 1037 1046 Z M 1037 907 " clip-rule="nonzero"/></clipPath><clipPath id="c7625b2df9"><path d="M 1184.027344 811 L 1215 811 L 1215 950 L 1184.027344 950 Z M 1184.027344 811 " clip-rule="nonzero"/></clipPath></defs><g clip-path="url(#c8b5830a5f)"><path fill="#ffffff" d="M 668.746094 857.578125 L 806.84375 969.164062 L 806.84375 1039.609375 C 806.84375 1101.125 856.710938 1150.996094 918.230469 1150.996094 L 1056.410156 1150.996094 C 1117.925781 1150.996094 1167.785156 1101.125 1167.785156 1039.609375 L 1167.785156 901.429688 C 1167.785156 839.917969 1117.925781 790.046875 1056.410156 790.046875 L 918.230469 790.046875 C 856.710938 790.046875 806.84375 839.917969 806.84375 901.429688 L 806.84375 919.359375 L 668.746094 857.578125 " fill-opacity="1" fill-rule="nonzero"/></g><g clip-path="url(#3f90725db4)"><path fill="#ffffff" d="M 1331.691406 1058.09375 L 1193.503906 1058.09375 C 1184.285156 1058.09375 1175.328125 1056.972656 1166.753906 1054.863281 C 1167.441406 1049.875 1167.785156 1044.789062 1167.785156 1039.609375 L 1167.785156 901.429688 C 1167.785156 849.140625 1131.757812 805.261719 1083.160156 793.28125 C 1090.597656 738.984375 1137.171875 697.148438 1193.503906 697.148438 L 1331.691406 697.148438 C 1393.207031 697.148438 1443.074219 747.019531 1443.074219 808.535156 L 1443.074219 878.980469 L 1581.171875 990.566406 L 1443.074219 928.78125 L 1443.074219 946.710938 C 1443.074219 1008.226562 1393.207031 1058.09375 1331.691406 1058.09375 " fill-opacity="1" fill-rule="nonzero"/></g><path fill="#efefef" d="M 1166.753906 1054.863281 C 1118.160156 1042.882812 1082.125 999.003906 1082.125 946.710938 L 1082.125 808.535156 C 1082.125 803.351562 1082.480469 798.269531 1083.160156 793.28125 C 1131.757812 805.261719 1167.785156 849.140625 1167.785156 901.429688 L 1167.785156 1039.609375 C 1167.785156 1044.789062 1167.441406 1049.875 1166.753906 1054.863281 " fill-opacity="1" fill-rule="nonzero"/><path fill="#000000" d="M 961.417969 868.660156 C 962.421875 868.660156 963.417969 868.757812 964.402344 868.957031 C 965.386719 869.152344 966.34375 869.441406 967.269531 869.824219 C 968.195312 870.210938 969.078125 870.679688 969.914062 871.238281 C 970.746094 871.796875 971.519531 872.429688 972.230469 873.140625 C 972.941406 873.851562 973.574219 874.621094 974.132812 875.457031 C 974.6875 876.292969 975.160156 877.171875 975.542969 878.101562 C 975.929688 879.027344 976.21875 879.984375 976.414062 880.96875 C 976.609375 881.953125 976.707031 882.949219 976.707031 883.953125 L 976.707031 1069.886719 C 976.707031 1070.890625 976.609375 1071.886719 976.414062 1072.871094 C 976.21875 1073.855469 975.929688 1074.8125 975.542969 1075.738281 C 975.160156 1076.667969 974.6875 1077.546875 974.132812 1078.382812 C 973.574219 1079.21875 972.941406 1079.988281 972.230469 1080.699219 C 971.519531 1081.410156 970.746094 1082.042969 969.914062 1082.601562 C 969.078125 1083.160156 968.195312 1083.628906 967.269531 1084.015625 C 966.34375 1084.398438 965.386719 1084.6875 964.402344 1084.886719 C 963.417969 1085.082031 962.421875 1085.179688 961.417969 1085.179688 C 960.414062 1085.179688 959.421875 1085.082031 958.4375 1084.886719 C 957.453125 1084.6875 956.496094 1084.398438 955.566406 1084.015625 C 954.640625 1083.628906 953.757812 1083.160156 952.925781 1082.601562 C 952.089844 1082.042969 951.316406 1081.410156 950.609375 1080.699219 C 949.898438 1079.988281 949.265625 1079.21875 948.707031 1078.382812 C 948.148438 1077.546875 947.675781 1076.667969 947.292969 1075.738281 C 946.910156 1074.8125 946.617188 1073.855469 946.421875 1072.871094 C 946.226562 1071.886719 946.128906 1070.890625 946.128906 1069.886719 L 946.128906 883.953125 C 946.128906 882.949219 946.226562 881.953125 946.421875 880.96875 C 946.617188 879.984375 946.910156 879.027344 947.292969 878.101562 C 947.675781 877.171875 948.148438 876.292969 948.707031 875.457031 C 949.265625 874.621094 949.898438 873.851562 950.609375 873.140625 C 951.316406 872.429688 952.089844 871.796875 952.925781 871.238281 C 953.757812 870.679688 954.640625 870.210938 955.566406 869.824219 C 956.496094 869.441406 957.453125 869.152344 958.4375 868.957031 C 959.421875 868.757812 960.414062 868.660156 961.417969 868.660156 Z M 961.417969 868.660156 " fill-opacity="1" fill-rule="nonzero"/><g clip-path="url(#eb6dcbff29)"><path fill="#000000" d="M 1053.152344 907.957031 C 1054.15625 907.957031 1055.152344 908.058594 1056.136719 908.253906 C 1057.121094 908.449219 1058.078125 908.738281 1059.003906 909.121094 C 1059.933594 909.507812 1060.8125 909.976562 1061.648438 910.535156 C 1062.484375 911.09375 1063.253906 911.726562 1063.964844 912.4375 C 1064.675781 913.148438 1065.308594 913.917969 1065.867188 914.753906 C 1066.425781 915.589844 1066.894531 916.46875 1067.28125 917.398438 C 1067.664062 918.324219 1067.953125 919.28125 1068.148438 920.265625 C 1068.34375 921.25 1068.445312 922.246094 1068.445312 923.25 L 1068.445312 1030.285156 C 1068.445312 1031.289062 1068.34375 1032.28125 1068.148438 1033.269531 C 1067.953125 1034.253906 1067.664062 1035.207031 1067.28125 1036.136719 C 1066.894531 1037.0625 1066.425781 1037.945312 1065.867188 1038.78125 C 1065.308594 1039.613281 1064.675781 1040.386719 1063.964844 1041.097656 C 1063.253906 1041.808594 1062.484375 1042.441406 1061.648438 1043 C 1060.8125 1043.554688 1059.933594 1044.027344 1059.003906 1044.410156 C 1058.078125 1044.796875 1057.121094 1045.085938 1056.136719 1045.28125 C 1055.152344 1045.476562 1054.15625 1045.574219 1053.152344 1045.574219 C 1052.148438 1045.574219 1051.15625 1045.476562 1050.171875 1045.28125 C 1049.1875 1045.085938 1048.230469 1044.796875 1047.304688 1044.410156 C 1046.375 1044.027344 1045.496094 1043.554688 1044.660156 1043 C 1043.824219 1042.441406 1043.054688 1041.808594 1042.34375 1041.097656 C 1041.632812 1040.386719 1041 1039.613281 1040.441406 1038.78125 C 1039.882812 1037.945312 1039.414062 1037.0625 1039.027344 1036.136719 C 1038.644531 1035.207031 1038.355469 1034.253906 1038.160156 1033.269531 C 1037.964844 1032.28125 1037.863281 1031.289062 1037.863281 1030.285156 L 1037.863281 923.25 C 1037.863281 922.246094 1037.964844 921.25 1038.160156 920.265625 C 1038.355469 919.28125 1038.644531 918.324219 1039.027344 917.398438 C 1039.414062 916.46875 1039.882812 915.589844 1040.441406 914.753906 C 1041 913.917969 1041.632812 913.148438 1042.34375 912.4375 C 1043.054688 911.726562 1043.824219 911.09375 1044.660156 910.535156 C 1045.496094 909.976562 1046.375 909.507812 1047.304688 909.121094 C 1048.230469 908.738281 1049.1875 908.449219 1050.171875 908.253906 C 1051.15625 908.058594 1052.148438 907.957031 1053.152344 907.957031 Z M 1053.152344 907.957031 " fill-opacity="1" fill-rule="nonzero"/></g><path fill="#000000" d="M 900.261719 916.0625 C 900.261719 915.058594 900.359375 914.0625 900.554688 913.078125 C 900.75 912.09375 901.042969 911.140625 901.425781 910.210938 C 901.808594 909.285156 902.28125 908.402344 902.839844 907.566406 C 903.394531 906.734375 904.03125 905.960938 904.738281 905.25 C 905.449219 904.539062 906.222656 903.90625 907.058594 903.347656 C 907.890625 902.792969 908.773438 902.320312 909.699219 901.9375 C 910.628906 901.550781 911.582031 901.261719 912.566406 901.066406 C 913.554688 900.871094 914.546875 900.773438 915.550781 900.773438 C 916.554688 900.773438 917.550781 900.871094 918.535156 901.066406 C 919.519531 901.261719 920.472656 901.550781 921.402344 901.9375 C 922.328125 902.320312 923.210938 902.792969 924.046875 903.347656 C 924.878906 903.90625 925.652344 904.539062 926.363281 905.25 C 927.070312 905.960938 927.707031 906.734375 928.261719 907.566406 C 928.820312 908.402344 929.292969 909.285156 929.675781 910.210938 C 930.0625 911.140625 930.351562 912.09375 930.546875 913.078125 C 930.742188 914.0625 930.839844 915.058594 930.839844 916.0625 L 930.839844 1038.390625 C 930.839844 1039.394531 930.742188 1040.386719 930.546875 1041.371094 C 930.351562 1042.355469 930.0625 1043.3125 929.675781 1044.242188 C 929.292969 1045.167969 928.820312 1046.050781 928.261719 1046.882812 C 927.707031 1047.71875 927.070312 1048.492188 926.363281 1049.199219 C 925.652344 1049.910156 924.878906 1050.542969 924.046875 1051.101562 C 923.210938 1051.660156 922.328125 1052.132812 921.402344 1052.515625 C 920.472656 1052.898438 919.519531 1053.191406 918.535156 1053.386719 C 917.550781 1053.582031 916.554688 1053.679688 915.550781 1053.679688 C 914.546875 1053.679688 913.554688 1053.582031 912.566406 1053.386719 C 911.582031 1053.191406 910.628906 1052.898438 909.699219 1052.515625 C 908.773438 1052.132812 907.890625 1051.660156 907.058594 1051.101562 C 906.222656 1050.542969 905.449219 1049.910156 904.738281 1049.199219 C 904.03125 1048.492188 903.394531 1047.71875 902.839844 1046.882812 C 902.28125 1046.050781 901.808594 1045.167969 901.425781 1044.242188 C 901.042969 1043.3125 900.75 1042.355469 900.554688 1041.371094 C 900.359375 1040.386719 900.261719 1039.394531 900.261719 1038.390625 Z M 900.261719 916.0625 " fill-opacity="1" fill-rule="nonzero"/><path fill="#000000" d="M 1007.285156 931.355469 C 1008.289062 931.355469 1009.285156 931.453125 1010.269531 931.648438 C 1011.253906 931.84375 1012.210938 932.132812 1013.136719 932.515625 C 1014.066406 932.902344 1014.945312 933.371094 1015.78125 933.929688 C 1016.617188 934.488281 1017.386719 935.121094 1018.097656 935.832031 C 1018.808594 936.542969 1019.441406 937.316406 1020 938.148438 C 1020.558594 938.984375 1021.027344 939.863281 1021.410156 940.792969 C 1021.796875 941.71875 1022.085938 942.675781 1022.28125 943.660156 C 1022.476562 944.644531 1022.574219 945.640625 1022.574219 946.644531 L 1022.574219 1007.808594 C 1022.574219 1008.8125 1022.476562 1009.804688 1022.28125 1010.789062 C 1022.085938 1011.773438 1021.796875 1012.730469 1021.410156 1013.660156 C 1021.027344 1014.585938 1020.558594 1015.46875 1020 1016.300781 C 1019.441406 1017.136719 1018.808594 1017.910156 1018.097656 1018.621094 C 1017.386719 1019.328125 1016.617188 1019.964844 1015.78125 1020.519531 C 1014.945312 1021.078125 1014.066406 1021.550781 1013.136719 1021.933594 C 1012.210938 1022.320312 1011.253906 1022.609375 1010.269531 1022.804688 C 1009.285156 1023 1008.289062 1023.097656 1007.285156 1023.097656 C 1006.28125 1023.097656 1005.289062 1023 1004.304688 1022.804688 C 1003.320312 1022.609375 1002.363281 1022.320312 1001.433594 1021.933594 C 1000.507812 1021.550781 999.625 1021.078125 998.792969 1020.519531 C 997.957031 1019.964844 997.183594 1019.328125 996.476562 1018.621094 C 995.765625 1017.910156 995.132812 1017.136719 994.574219 1016.300781 C 994.015625 1015.46875 993.546875 1014.585938 993.160156 1013.660156 C 992.777344 1012.730469 992.488281 1011.773438 992.289062 1010.789062 C 992.09375 1009.804688 991.996094 1008.8125 991.996094 1007.808594 L 991.996094 946.644531 C 991.996094 945.640625 992.09375 944.644531 992.289062 943.660156 C 992.488281 942.675781 992.777344 941.71875 993.160156 940.792969 C 993.546875 939.863281 994.015625 938.984375 994.574219 938.148438 C 995.132812 937.3125 995.765625 936.542969 996.476562 935.832031 C 997.183594 935.121094 997.957031 934.488281 998.792969 933.929688 C 999.625 933.371094 1000.507812 932.902344 1001.433594 932.515625 C 1002.363281 932.132812 1003.320312 931.84375 1004.304688 931.648438 C 1005.289062 931.453125 1006.28125 931.355469 1007.285156 931.355469 Z M 1007.285156 931.355469 " fill-opacity="1" fill-rule="nonzero"/><path fill="#000000" d="M 1291.054688 772.339844 C 1290.050781 772.339844 1289.054688 772.4375 1288.070312 772.632812 C 1287.085938 772.828125 1286.128906 773.117188 1285.203125 773.503906 C 1284.273438 773.886719 1283.394531 774.359375 1282.558594 774.914062 C 1281.722656 775.472656 1280.953125 776.109375 1280.242188 776.816406 C 1279.53125 777.527344 1278.898438 778.300781 1278.339844 779.132812 C 1277.78125 779.96875 1277.3125 780.851562 1276.925781 781.777344 C 1276.542969 782.707031 1276.253906 783.660156 1276.058594 784.648438 C 1275.863281 785.632812 1275.761719 786.625 1275.761719 787.628906 L 1275.761719 973.566406 C 1275.761719 974.570312 1275.863281 975.5625 1276.058594 976.546875 C 1276.253906 977.535156 1276.542969 978.488281 1276.925781 979.417969 C 1277.3125 980.34375 1277.78125 981.226562 1278.339844 982.0625 C 1278.898438 982.894531 1279.53125 983.667969 1280.242188 984.378906 C 1280.953125 985.085938 1281.722656 985.722656 1282.558594 986.277344 C 1283.394531 986.835938 1284.273438 987.308594 1285.203125 987.691406 C 1286.128906 988.078125 1287.085938 988.367188 1288.070312 988.5625 C 1289.054688 988.757812 1290.050781 988.855469 1291.054688 988.855469 C 1292.058594 988.855469 1293.050781 988.757812 1294.035156 988.5625 C 1295.019531 988.367188 1295.976562 988.078125 1296.902344 987.691406 C 1297.832031 987.308594 1298.710938 986.835938 1299.546875 986.277344 C 1300.382812 985.722656 1301.152344 985.085938 1301.863281 984.378906 C 1302.574219 983.667969 1303.207031 982.894531 1303.765625 982.058594 C 1304.324219 981.226562 1304.792969 980.34375 1305.179688 979.417969 C 1305.5625 978.488281 1305.851562 977.535156 1306.046875 976.546875 C 1306.242188 975.5625 1306.34375 974.570312 1306.34375 973.566406 L 1306.34375 787.628906 C 1306.34375 786.625 1306.242188 785.632812 1306.046875 784.648438 C 1305.851562 783.660156 1305.5625 782.707031 1305.179688 781.777344 C 1304.792969 780.851562 1304.324219 779.96875 1303.765625 779.132812 C 1303.207031 778.300781 1302.574219 777.527344 1301.863281 776.816406 C 1301.152344 776.109375 1300.382812 775.472656 1299.546875 774.914062 C 1298.710938 774.359375 1297.832031 773.886719 1296.902344 773.503906 C 1295.976562 773.117188 1295.019531 772.828125 1294.035156 772.632812 C 1293.050781 772.4375 1292.058594 772.339844 1291.054688 772.339844 Z M 1291.054688 772.339844 " fill-opacity="1" fill-rule="nonzero"/><g clip-path="url(#c7625b2df9)"><path fill="#000000" d="M 1199.316406 811.636719 C 1198.3125 811.636719 1197.320312 811.734375 1196.335938 811.929688 C 1195.351562 812.125 1194.394531 812.417969 1193.464844 812.800781 C 1192.539062 813.183594 1191.65625 813.65625 1190.824219 814.214844 C 1189.988281 814.769531 1189.214844 815.40625 1188.507812 816.113281 C 1187.796875 816.824219 1187.164062 817.597656 1186.605469 818.433594 C 1186.046875 819.265625 1185.574219 820.148438 1185.191406 821.074219 C 1184.808594 822.003906 1184.519531 822.960938 1184.320312 823.945312 C 1184.125 824.929688 1184.027344 825.921875 1184.027344 826.925781 L 1184.027344 933.960938 C 1184.027344 934.964844 1184.125 935.960938 1184.320312 936.945312 C 1184.519531 937.929688 1184.808594 938.886719 1185.191406 939.8125 C 1185.574219 940.742188 1186.046875 941.621094 1186.605469 942.457031 C 1187.164062 943.292969 1187.796875 944.066406 1188.507812 944.773438 C 1189.214844 945.484375 1189.988281 946.117188 1190.824219 946.675781 C 1191.65625 947.234375 1192.539062 947.703125 1193.464844 948.089844 C 1194.394531 948.472656 1195.351562 948.761719 1196.335938 948.960938 C 1197.320312 949.15625 1198.3125 949.253906 1199.316406 949.253906 C 1200.320312 949.253906 1201.316406 949.15625 1202.300781 948.960938 C 1203.285156 948.761719 1204.242188 948.472656 1205.167969 948.089844 C 1206.09375 947.703125 1206.976562 947.234375 1207.8125 946.675781 C 1208.644531 946.117188 1209.417969 945.484375 1210.128906 944.773438 C 1210.839844 944.066406 1211.472656 943.292969 1212.03125 942.457031 C 1212.585938 941.621094 1213.058594 940.742188 1213.441406 939.8125 C 1213.828125 938.886719 1214.117188 937.929688 1214.3125 936.945312 C 1214.507812 935.960938 1214.605469 934.964844 1214.605469 933.960938 L 1214.605469 826.925781 C 1214.605469 825.921875 1214.507812 824.929688 1214.3125 823.945312 C 1214.117188 822.960938 1213.828125 822.003906 1213.441406 821.074219 C 1213.058594 820.148438 1212.585938 819.265625 1212.03125 818.433594 C 1211.472656 817.597656 1210.839844 816.824219 1210.128906 816.113281 C 1209.417969 815.40625 1208.644531 814.769531 1207.8125 814.214844 C 1206.976562 813.65625 1206.09375 813.183594 1205.167969 812.800781 C 1204.242188 812.417969 1203.285156 812.125 1202.300781 811.929688 C 1201.316406 811.734375 1200.320312 811.636719 1199.316406 811.636719 Z M 1199.316406 811.636719 " fill-opacity="1" fill-rule="nonzero"/></g><path fill="#000000" d="M 1352.210938 819.742188 C 1352.210938 818.738281 1352.113281 817.742188 1351.914062 816.757812 C 1351.71875 815.773438 1351.429688 814.816406 1351.046875 813.890625 C 1350.660156 812.960938 1350.191406 812.082031 1349.632812 811.246094 C 1349.074219 810.410156 1348.441406 809.636719 1347.730469 808.929688 C 1347.023438 808.21875 1346.25 807.585938 1345.414062 807.027344 C 1344.578125 806.46875 1343.699219 805.996094 1342.769531 805.613281 C 1341.84375 805.230469 1340.886719 804.9375 1339.902344 804.742188 C 1338.917969 804.546875 1337.925781 804.449219 1336.921875 804.449219 C 1335.917969 804.449219 1334.921875 804.546875 1333.9375 804.742188 C 1332.953125 804.9375 1331.996094 805.230469 1331.070312 805.613281 C 1330.140625 805.996094 1329.261719 806.46875 1328.425781 807.027344 C 1327.589844 807.585938 1326.820312 808.21875 1326.109375 808.929688 C 1325.398438 809.636719 1324.765625 810.410156 1324.207031 811.246094 C 1323.648438 812.082031 1323.179688 812.960938 1322.796875 813.890625 C 1322.410156 814.816406 1322.121094 815.773438 1321.925781 816.757812 C 1321.730469 817.742188 1321.632812 818.738281 1321.632812 819.742188 L 1321.632812 942.066406 C 1321.632812 943.070312 1321.730469 944.066406 1321.925781 945.050781 C 1322.121094 946.035156 1322.410156 946.992188 1322.796875 947.917969 C 1323.179688 948.84375 1323.648438 949.726562 1324.207031 950.5625 C 1324.765625 951.394531 1325.398438 952.167969 1326.109375 952.878906 C 1326.820312 953.589844 1327.589844 954.222656 1328.425781 954.78125 C 1329.261719 955.339844 1330.140625 955.808594 1331.070312 956.191406 C 1331.996094 956.578125 1332.953125 956.867188 1333.9375 957.0625 C 1334.921875 957.257812 1335.917969 957.355469 1336.921875 957.355469 C 1337.925781 957.355469 1338.917969 957.257812 1339.902344 957.0625 C 1340.886719 956.867188 1341.84375 956.578125 1342.769531 956.191406 C 1343.699219 955.808594 1344.578125 955.339844 1345.414062 954.78125 C 1346.25 954.222656 1347.023438 953.589844 1347.730469 952.878906 C 1348.441406 952.167969 1349.074219 951.394531 1349.632812 950.5625 C 1350.191406 949.726562 1350.660156 948.84375 1351.046875 947.917969 C 1351.429688 946.992188 1351.71875 946.035156 1351.914062 945.050781 C 1352.113281 944.066406 1352.210938 943.070312 1352.210938 942.066406 Z M 1352.210938 819.742188 " fill-opacity="1" fill-rule="nonzero"/><path fill="#000000" d="M 1245.183594 835.03125 C 1244.179688 835.03125 1243.1875 835.128906 1242.203125 835.324219 C 1241.21875 835.519531 1240.261719 835.8125 1239.335938 836.195312 C 1238.40625 836.578125 1237.527344 837.050781 1236.691406 837.609375 C 1235.855469 838.164062 1235.082031 838.800781 1234.375 839.507812 C 1233.664062 840.21875 1233.03125 840.992188 1232.472656 841.828125 C 1231.914062 842.660156 1231.445312 843.542969 1231.058594 844.46875 C 1230.675781 845.398438 1230.386719 846.355469 1230.191406 847.339844 C 1229.992188 848.324219 1229.894531 849.316406 1229.894531 850.320312 L 1229.894531 911.484375 C 1229.894531 912.488281 1229.992188 913.484375 1230.191406 914.46875 C 1230.386719 915.453125 1230.675781 916.410156 1231.058594 917.335938 C 1231.445312 918.265625 1231.914062 919.144531 1232.472656 919.980469 C 1233.03125 920.816406 1233.664062 921.585938 1234.375 922.296875 C 1235.082031 923.007812 1235.855469 923.640625 1236.691406 924.199219 C 1237.527344 924.757812 1238.40625 925.226562 1239.335938 925.613281 C 1240.261719 925.996094 1241.21875 926.285156 1242.203125 926.480469 C 1243.1875 926.679688 1244.179688 926.777344 1245.183594 926.777344 C 1246.1875 926.777344 1247.183594 926.679688 1248.167969 926.480469 C 1249.152344 926.285156 1250.109375 925.996094 1251.035156 925.613281 C 1251.964844 925.226562 1252.84375 924.757812 1253.679688 924.199219 C 1254.515625 923.640625 1255.285156 923.007812 1255.996094 922.296875 C 1256.707031 921.585938 1257.339844 920.816406 1257.898438 919.980469 C 1258.457031 919.144531 1258.925781 918.265625 1259.308594 917.335938 C 1259.695312 916.410156 1259.984375 915.453125 1260.179688 914.46875 C 1260.375 913.484375 1260.472656 912.488281 1260.472656 911.484375 L 1260.472656 850.320312 C 1260.472656 849.316406 1260.375 848.324219 1260.179688 847.339844 C 1259.984375 846.355469 1259.695312 845.398438 1259.308594 844.46875 C 1258.925781 843.542969 1258.457031 842.660156 1257.898438 841.828125 C 1257.339844 840.992188 1256.707031 840.21875 1255.996094 839.507812 C 1255.285156 838.800781 1254.515625 838.164062 1253.679688 837.609375 C 1252.84375 837.050781 1251.964844 836.578125 1251.035156 836.195312 C 1250.109375 835.8125 1249.152344 835.519531 1248.167969 835.324219 C 1247.183594 835.128906 1246.1875 835.03125 1245.183594 835.03125 Z M 1245.183594 835.03125 " fill-opacity="1" fill-rule="nonzero"/><g fill="#ff5757" fill-opacity="1"><g transform="translate(519.48993, 1442.099434)"><g><path d="M 87.75 -176.015625 L 20.109375 -176.015625 L 20.109375 0 L 58.078125 0 L 58.078125 -54.8125 L 87.75 -54.8125 C 123.21875 -54.8125 149.859375 -80.71875 149.859375 -115.421875 C 149.859375 -150.125 122.953125 -176.015625 87.75 -176.015625 Z M 86 -90.015625 L 58.078125 -90.015625 L 58.078125 -140.5625 L 86 -140.5625 C 101.078125 -140.5625 111.390625 -130 111.390625 -115.421875 C 111.390625 -100.828125 101.078125 -90.015625 86 -90.015625 Z M 86 -90.015625 "/></g></g></g><g fill="#ff5757" fill-opacity="1"><g transform="translate(675.893601, 1442.099434)"><g><path d="M 81.96875 4.015625 C 123.96875 4.015625 155.390625 -26.90625 155.390625 -67.890625 C 155.390625 -108.875 123.96875 -139.5625 81.96875 -139.5625 C 39.984375 -139.5625 8.546875 -108.875 8.546875 -67.890625 C 8.546875 -26.90625 39.984375 4.015625 81.96875 4.015625 Z M 81.96875 -30.671875 C 60.859375 -30.671875 45.765625 -45.765625 45.765625 -67.890625 C 45.765625 -89.765625 60.859375 -105.109375 81.96875 -105.109375 C 103.09375 -105.109375 118.1875 -89.765625 118.1875 -67.890625 C 118.1875 -45.765625 103.09375 -30.671875 81.96875 -30.671875 Z M 81.96875 -30.671875 "/></g></g></g><g fill="#ff5757" fill-opacity="1"><g transform="translate(840.092316, 1442.099434)"><g><path d="M 117.171875 -184.5625 L 117.171875 -128.234375 C 106.609375 -135.53125 94.046875 -139.5625 79.96875 -139.5625 C 38.71875 -139.5625 8.546875 -108.875 8.546875 -67.640625 C 8.546875 -26.65625 38.71875 4.28125 79.96875 4.28125 C 96.5625 4.28125 111.140625 -1.515625 122.453125 -11.0625 L 126.734375 0.25 L 153.890625 0.25 L 153.890625 -184.5625 Z M 82.984375 -30.421875 C 61.609375 -30.421875 46.015625 -46.515625 46.015625 -67.640625 C 46.015625 -89.015625 61.609375 -104.859375 82.984375 -104.859375 C 104.359375 -104.859375 119.9375 -89.015625 119.9375 -67.640625 C 119.9375 -46.515625 104.359375 -30.421875 82.984375 -30.421875 Z M 82.984375 -30.421875 "/></g></g></g><g fill="#ff5757" fill-opacity="1"><g transform="translate(1011.834597, 1442.099434)"><g><path d="M 80.71875 4.015625 C 116.171875 4.015625 144.078125 -19.109375 150.375 -53.3125 L 113.40625 -53.3125 C 107.125 -38.71875 95.546875 -30.671875 80.71875 -30.671875 C 61.109375 -30.671875 45.765625 -47.015625 45.765625 -67.890625 C 45.765625 -89.015625 60.859375 -105.109375 80.71875 -105.109375 C 95.296875 -105.109375 107.625 -97.0625 113.40625 -83.734375 L 149.859375 -83.734375 C 143.328125 -117.171875 116.171875 -139.5625 80.96875 -139.5625 C 39.734375 -139.5625 8.546875 -108.875 8.546875 -68.140625 C 8.546875 -27.40625 39.734375 4.015625 80.71875 4.015625 Z M 80.71875 4.015625 "/></g></g></g><g fill="#ff5757" fill-opacity="1"><g transform="translate(1168.992651, 1442.099434)"><g><path d="M 128.234375 -135.78125 L 124.46875 -122.953125 C 112.65625 -133.265625 97.3125 -139.5625 79.703125 -139.5625 C 38.96875 -139.5625 8.546875 -108.875 8.546875 -67.890625 C 8.546875 -26.90625 38.96875 4.015625 79.703125 4.015625 C 97.0625 4.015625 112.140625 -2.015625 123.71875 -12.328125 L 126.984375 0 L 155.65625 0 L 155.65625 -135.78125 Z M 82.734375 -30.671875 C 61.359375 -30.671875 45.765625 -46.765625 45.765625 -67.890625 C 45.765625 -89.265625 61.359375 -105.109375 82.734375 -105.109375 C 104.109375 -105.109375 119.6875 -89.265625 119.6875 -67.890625 C 119.6875 -46.515625 104.109375 -30.671875 82.734375 -30.671875 Z M 82.734375 -30.671875 "/></g></g></g><g fill="#ff5757" fill-opacity="1"><g transform="translate(1342.49512, 1442.099434)"><g><path d="M 65.625 4.015625 C 100.078125 4.015625 122.703125 -14.078125 122.703125 -41.734375 C 122.703125 -74.9375 94.296875 -79.453125 72.171875 -83.484375 C 58.078125 -86 46.515625 -88.265625 46.515625 -97.3125 C 46.515625 -105.109375 53.3125 -110.140625 64.625 -110.140625 C 77.453125 -110.140625 84.984375 -104.859375 85.25 -94.046875 L 120.1875 -94.046875 C 119.9375 -121.203125 98.3125 -139.5625 65.625 -139.5625 C 32.9375 -139.5625 11.0625 -121.703125 11.0625 -96.0625 C 11.0625 -64.125 38.71875 -58.34375 60.34375 -54.5625 C 74.6875 -52.296875 86.5 -49.53125 86.5 -40.234375 C 86.5 -31.1875 77.203125 -26.40625 67.140625 -26.40625 C 54.0625 -26.40625 44.765625 -32.4375 44.5 -44.5 L 8.796875 -44.5 C 8.796875 -15.59375 31.6875 4.015625 65.625 4.015625 Z M 65.625 4.015625 "/></g></g></g><g fill="#ff5757" fill-opacity="1"><g transform="translate(1474.50785, 1442.099434)"><g><path d="M 83.984375 -32.6875 C 70.40625 -32.6875 62.859375 -40.234375 62.859375 -53.3125 L 62.859375 -106.109375 L 99.828125 -106.109375 L 99.828125 -135.78125 L 62.359375 -135.78125 L 62.359375 -170.984375 L 55.3125 -170.984375 L 1.765625 -114.15625 L 1.765625 -106.109375 L 26.15625 -106.109375 L 26.15625 -48.28125 C 26.15625 -18.359375 44.5 0 74.4375 0 L 100.578125 0 L 100.578125 -32.6875 Z M 83.984375 -32.6875 "/></g></g></g><g fill="#03989e" fill-opacity="1"><g transform="translate(1582.634607, 1442.099434)"><g><path d="M 114.40625 -88.515625 C 125.734375 -97.0625 131.515625 -108.625 131.515625 -122.703125 C 131.515625 -150.875 108.125 -170.484375 73.921875 -170.484375 C 39.734375 -170.484375 16.09375 -150.625 16.09375 -122.703125 C 16.09375 -108.875 21.875 -97.5625 33.1875 -88.765625 C 18.609375 -79.453125 11.5625 -66.640625 11.5625 -50.296875 C 11.5625 -18.859375 36.96875 3.015625 73.671875 3.015625 C 110.390625 3.015625 136.28125 -19.109375 136.28125 -50.296875 C 136.28125 -66.640625 129 -79.453125 114.40625 -88.515625 Z M 73.921875 -141.3125 C 87.25 -141.3125 96.5625 -133.015625 96.5625 -121.703125 C 96.5625 -110.390625 87.25 -102.09375 73.921875 -102.09375 C 60.59375 -102.09375 51.046875 -110.390625 51.046875 -121.703125 C 51.046875 -133.015625 60.59375 -141.3125 73.921875 -141.3125 Z M 73.921875 -27.65625 C 58.078125 -27.65625 47.265625 -37.21875 47.265625 -50.796875 C 47.265625 -64.375 58.078125 -73.921875 73.921875 -73.921875 C 90.015625 -73.921875 100.578125 -64.375 100.578125 -50.796875 C 100.578125 -37.21875 90.015625 -27.65625 73.921875 -27.65625 Z M 73.921875 -27.65625 "/></g></g></g></svg>