<svg xmlns="http://www.w3.org/2000/svg" xmlns:xlink="http://www.w3.org/1999/xlink" width="3000" zoomAndPan="magnify" viewBox="0 0 2250 2250.000011" height="3000" preserveAspectRatio="xMidYMid meet" version="1.0"><defs><g/><clipPath id="80dad9579f"><path d="M 668.785156 790 L 1168 790 L 1168 1151 L 668.785156 1151 Z M 668.785156 790 " clip-rule="nonzero"/></clipPath><clipPath id="eaf66cd6cc"><path d="M 1083 697.070312 L 1581.132812 697.070312 L 1581.132812 1059 L 1083 1059 Z M 1083 697.070312 " clip-rule="nonzero"/></clipPath><clipPath id="27f0a8adaa"><path d="M 1037 907 L 1068.445312 907 L 1068.445312 1046 L 1037 1046 Z M 1037 907 " clip-rule="nonzero"/></clipPath><clipPath id="56f2a4d1f6"><path d="M 1184.027344 811 L 1215 811 L 1215 950 L 1184.027344 950 Z M 1184.027344 811 " clip-rule="nonzero"/></clipPath></defs><g clip-path="url(#80dad9579f)"><path fill="#ffffff" d="M 668.746094 857.578125 L 806.84375 969.164062 L 806.84375 1039.609375 C 806.84375 1101.125 856.710938 1150.996094 918.230469 1150.996094 L 1056.410156 1150.996094 C 1117.925781 1150.996094 1167.785156 1101.125 1167.785156 1039.609375 L 1167.785156 901.429688 C 1167.785156 839.917969 1117.925781 790.046875 1056.410156 790.046875 L 918.230469 790.046875 C 856.710938 790.046875 806.84375 839.917969 806.84375 901.429688 L 806.84375 919.359375 L 668.746094 857.578125 " fill-opacity="1" fill-rule="nonzero"/></g><g clip-path="url(#eaf66cd6cc)"><path fill="#ffffff" d="M 1331.691406 1058.09375 L 1193.503906 1058.09375 C 1184.285156 1058.09375 1175.328125 1056.96875 1166.753906 1054.863281 C 1167.441406 1049.875 1167.785156 1044.789062 1167.785156 1039.609375 L 1167.785156 901.429688 C 1167.785156 849.136719 1131.757812 805.257812 1083.160156 793.28125 C 1090.597656 738.984375 1137.171875 697.148438 1193.503906 697.148438 L 1331.691406 697.148438 C 1393.207031 697.148438 1443.074219 747.019531 1443.074219 808.535156 L 1443.074219 878.980469 L 1581.171875 990.566406 L 1443.074219 928.78125 L 1443.074219 946.710938 C 1443.074219 1008.226562 1393.207031 1058.09375 1331.691406 1058.09375 " fill-opacity="1" fill-rule="nonzero"/></g><path fill="#efefef" d="M 1166.753906 1054.863281 C 1118.160156 1042.882812 1082.125 999.003906 1082.125 946.710938 L 1082.125 808.535156 C 1082.125 803.351562 1082.480469 798.269531 1083.160156 793.28125 C 1131.757812 805.257812 1167.785156 849.136719 1167.785156 901.429688 L 1167.785156 1039.609375 C 1167.785156 1044.789062 1167.441406 1049.875 1166.753906 1054.863281 " fill-opacity="1" fill-rule="nonzero"/><path fill="#ff5757" d="M 961.394531 868.683594 C 962.398438 868.683594 963.390625 868.78125 964.375 868.976562 C 965.359375 869.171875 966.316406 869.460938 967.246094 869.847656 C 968.171875 870.230469 969.054688 870.703125 969.890625 871.257812 C 970.722656 871.816406 971.496094 872.449219 972.207031 873.160156 C 972.917969 873.871094 973.550781 874.644531 974.109375 875.476562 C 974.667969 876.3125 975.136719 877.195312 975.523438 878.121094 C 975.90625 879.050781 976.195312 880.007812 976.390625 880.992188 C 976.585938 881.976562 976.6875 882.96875 976.6875 883.976562 L 976.6875 1069.9375 C 976.6875 1070.941406 976.585938 1071.9375 976.390625 1072.921875 C 976.195312 1073.90625 975.90625 1074.863281 975.523438 1075.789062 C 975.136719 1076.71875 974.667969 1077.597656 974.109375 1078.433594 C 973.550781 1079.269531 972.917969 1080.039062 972.207031 1080.75 C 971.496094 1081.460938 970.722656 1082.09375 969.890625 1082.652344 C 969.054688 1083.210938 968.171875 1083.683594 967.246094 1084.066406 C 966.316406 1084.449219 965.359375 1084.742188 964.375 1084.9375 C 963.390625 1085.132812 962.398438 1085.230469 961.394531 1085.230469 C 960.386719 1085.230469 959.394531 1085.132812 958.410156 1084.9375 C 957.425781 1084.742188 956.46875 1084.449219 955.539062 1084.066406 C 954.613281 1083.683594 953.730469 1083.210938 952.894531 1082.652344 C 952.0625 1082.09375 951.289062 1081.460938 950.578125 1080.75 C 949.867188 1080.039062 949.234375 1079.269531 948.675781 1078.433594 C 948.121094 1077.597656 947.648438 1076.71875 947.265625 1075.789062 C 946.878906 1074.863281 946.589844 1073.90625 946.394531 1072.921875 C 946.199219 1071.9375 946.101562 1070.941406 946.101562 1069.9375 L 946.101562 883.976562 C 946.101562 882.96875 946.199219 881.976562 946.394531 880.992188 C 946.589844 880.007812 946.878906 879.050781 947.265625 878.121094 C 947.648438 877.195312 948.121094 876.3125 948.675781 875.476562 C 949.234375 874.644531 949.867188 873.871094 950.578125 873.160156 C 951.289062 872.449219 952.0625 871.816406 952.894531 871.257812 C 953.730469 870.703125 954.613281 870.230469 955.539062 869.847656 C 956.46875 869.460938 957.425781 869.171875 958.410156 868.976562 C 959.394531 868.78125 960.386719 868.683594 961.394531 868.683594 Z M 961.394531 868.683594 " fill-opacity="1" fill-rule="nonzero"/><g clip-path="url(#27f0a8adaa)"><path fill="#ff5757" d="M 1053.152344 907.984375 C 1054.15625 907.984375 1055.148438 908.082031 1056.132812 908.277344 C 1057.117188 908.472656 1058.074219 908.765625 1059.003906 909.148438 C 1059.929688 909.53125 1060.8125 910.003906 1061.648438 910.5625 C 1062.480469 911.121094 1063.253906 911.753906 1063.964844 912.464844 C 1064.675781 913.175781 1065.308594 913.945312 1065.867188 914.78125 C 1066.425781 915.617188 1066.894531 916.496094 1067.277344 917.425781 C 1067.664062 918.351562 1067.953125 919.308594 1068.148438 920.292969 C 1068.34375 921.277344 1068.445312 922.273438 1068.445312 923.277344 L 1068.445312 1030.328125 C 1068.445312 1031.332031 1068.34375 1032.328125 1068.148438 1033.3125 C 1067.953125 1034.296875 1067.664062 1035.253906 1067.28125 1036.179688 C 1066.894531 1037.109375 1066.425781 1037.988281 1065.867188 1038.824219 C 1065.308594 1039.660156 1064.675781 1040.433594 1063.964844 1041.140625 C 1063.253906 1041.851562 1062.480469 1042.484375 1061.648438 1043.042969 C 1060.8125 1043.601562 1059.929688 1044.074219 1059.003906 1044.457031 C 1058.074219 1044.839844 1057.117188 1045.132812 1056.132812 1045.328125 C 1055.148438 1045.523438 1054.15625 1045.621094 1053.152344 1045.621094 C 1052.144531 1045.621094 1051.152344 1045.523438 1050.167969 1045.328125 C 1049.183594 1045.132812 1048.226562 1044.839844 1047.296875 1044.457031 C 1046.371094 1044.074219 1045.488281 1043.601562 1044.652344 1043.042969 C 1043.820312 1042.484375 1043.046875 1041.851562 1042.335938 1041.140625 C 1041.625 1040.433594 1040.992188 1039.660156 1040.433594 1038.824219 C 1039.875 1037.988281 1039.40625 1037.109375 1039.023438 1036.179688 C 1038.636719 1035.253906 1038.347656 1034.296875 1038.152344 1033.3125 C 1037.957031 1032.328125 1037.859375 1031.332031 1037.859375 1030.328125 L 1037.859375 923.277344 C 1037.859375 922.273438 1037.957031 921.277344 1038.152344 920.292969 C 1038.347656 919.308594 1038.636719 918.351562 1039.023438 917.425781 C 1039.40625 916.496094 1039.875 915.617188 1040.433594 914.78125 C 1040.992188 913.945312 1041.625 913.175781 1042.335938 912.464844 C 1043.046875 911.753906 1043.820312 911.121094 1044.652344 910.5625 C 1045.488281 910.003906 1046.371094 909.53125 1047.296875 909.148438 C 1048.226562 908.765625 1049.183594 908.472656 1050.167969 908.277344 C 1051.152344 908.082031 1052.144531 907.984375 1053.152344 907.984375 Z M 1053.152344 907.984375 " fill-opacity="1" fill-rule="nonzero"/></g><path fill="#ff5757" d="M 900.222656 916.089844 C 900.222656 915.085938 900.320312 914.089844 900.515625 913.105469 C 900.710938 912.121094 901 911.164062 901.386719 910.238281 C 901.769531 909.308594 902.242188 908.429688 902.796875 907.59375 C 903.355469 906.757812 903.988281 905.984375 904.699219 905.277344 C 905.410156 904.566406 906.183594 903.933594 907.015625 903.375 C 907.851562 902.816406 908.734375 902.34375 909.660156 901.960938 C 910.589844 901.578125 911.546875 901.285156 912.53125 901.089844 C 913.515625 900.894531 914.507812 900.796875 915.515625 900.796875 C 916.519531 900.796875 917.511719 900.894531 918.496094 901.089844 C 919.480469 901.285156 920.4375 901.578125 921.367188 901.960938 C 922.292969 902.34375 923.175781 902.816406 924.011719 903.375 C 924.84375 903.933594 925.617188 904.566406 926.328125 905.277344 C 927.039062 905.984375 927.671875 906.757812 928.230469 907.59375 C 928.789062 908.429688 929.257812 909.308594 929.644531 910.238281 C 930.027344 911.164062 930.316406 912.121094 930.511719 913.105469 C 930.707031 914.089844 930.808594 915.085938 930.808594 916.089844 L 930.808594 1038.433594 C 930.808594 1039.4375 930.707031 1040.433594 930.511719 1041.417969 C 930.316406 1042.402344 930.027344 1043.359375 929.644531 1044.285156 C 929.257812 1045.214844 928.789062 1046.09375 928.230469 1046.929688 C 927.671875 1047.765625 927.039062 1048.539062 926.328125 1049.246094 C 925.617188 1049.957031 924.84375 1050.589844 924.011719 1051.148438 C 923.175781 1051.707031 922.292969 1052.179688 921.367188 1052.5625 C 920.4375 1052.945312 919.480469 1053.238281 918.496094 1053.433594 C 917.511719 1053.628906 916.519531 1053.726562 915.515625 1053.726562 C 914.507812 1053.726562 913.515625 1053.628906 912.53125 1053.433594 C 911.546875 1053.238281 910.589844 1052.945312 909.660156 1052.5625 C 908.734375 1052.179688 907.851562 1051.707031 907.015625 1051.148438 C 906.183594 1050.589844 905.410156 1049.957031 904.699219 1049.246094 C 903.988281 1048.539062 903.355469 1047.765625 902.796875 1046.929688 C 902.242188 1046.09375 901.769531 1045.214844 901.386719 1044.285156 C 901 1043.359375 900.710938 1042.402344 900.515625 1041.417969 C 900.320312 1040.433594 900.222656 1039.4375 900.222656 1038.433594 Z M 900.222656 916.089844 " fill-opacity="1" fill-rule="nonzero"/><path fill="#ff5757" d="M 1007.273438 931.382812 C 1008.277344 931.382812 1009.269531 931.480469 1010.253906 931.675781 C 1011.238281 931.871094 1012.195312 932.164062 1013.125 932.546875 C 1014.050781 932.929688 1014.933594 933.402344 1015.769531 933.960938 C 1016.601562 934.519531 1017.375 935.152344 1018.085938 935.863281 C 1018.796875 936.570312 1019.429688 937.34375 1019.988281 938.179688 C 1020.546875 939.015625 1021.015625 939.894531 1021.402344 940.824219 C 1021.785156 941.75 1022.074219 942.707031 1022.269531 943.691406 C 1022.464844 944.675781 1022.566406 945.671875 1022.566406 946.675781 L 1022.566406 1007.847656 C 1022.566406 1008.851562 1022.464844 1009.847656 1022.269531 1010.832031 C 1022.074219 1011.816406 1021.785156 1012.773438 1021.402344 1013.699219 C 1021.015625 1014.628906 1020.546875 1015.507812 1019.988281 1016.34375 C 1019.429688 1017.179688 1018.796875 1017.953125 1018.085938 1018.660156 C 1017.375 1019.371094 1016.601562 1020.003906 1015.769531 1020.5625 C 1014.933594 1021.121094 1014.050781 1021.59375 1013.125 1021.976562 C 1012.195312 1022.359375 1011.238281 1022.652344 1010.253906 1022.847656 C 1009.269531 1023.042969 1008.277344 1023.140625 1007.273438 1023.140625 C 1006.265625 1023.140625 1005.273438 1023.042969 1004.289062 1022.847656 C 1003.304688 1022.652344 1002.347656 1022.359375 1001.417969 1021.976562 C 1000.492188 1021.59375 999.609375 1021.121094 998.773438 1020.5625 C 997.941406 1020.003906 997.167969 1019.371094 996.457031 1018.660156 C 995.746094 1017.953125 995.113281 1017.179688 994.554688 1016.34375 C 994 1015.507812 993.527344 1014.628906 993.144531 1013.699219 C 992.757812 1012.773438 992.46875 1011.816406 992.273438 1010.832031 C 992.078125 1009.847656 991.980469 1008.851562 991.980469 1007.847656 L 991.980469 946.675781 C 991.980469 945.671875 992.078125 944.675781 992.273438 943.691406 C 992.46875 942.707031 992.757812 941.75 993.144531 940.824219 C 993.527344 939.894531 994 939.015625 994.554688 938.179688 C 995.113281 937.34375 995.746094 936.570312 996.457031 935.863281 C 997.167969 935.152344 997.941406 934.519531 998.773438 933.960938 C 999.609375 933.402344 1000.492188 932.929688 1001.417969 932.546875 C 1002.347656 932.164062 1003.304688 931.871094 1004.289062 931.675781 C 1005.273438 931.480469 1006.265625 931.382812 1007.273438 931.382812 Z M 1007.273438 931.382812 " fill-opacity="1" fill-rule="nonzero"/><path fill="#03989e" d="M 1291.078125 772.378906 C 1290.074219 772.378906 1289.082031 772.476562 1288.09375 772.671875 C 1287.109375 772.867188 1286.152344 773.15625 1285.226562 773.542969 C 1284.296875 773.925781 1283.417969 774.398438 1282.582031 774.957031 C 1281.746094 775.511719 1280.976562 776.148438 1280.265625 776.859375 C 1279.554688 777.566406 1278.921875 778.339844 1278.363281 779.175781 C 1277.804688 780.011719 1277.335938 780.890625 1276.949219 781.820312 C 1276.566406 782.746094 1276.277344 783.703125 1276.078125 784.6875 C 1275.882812 785.671875 1275.785156 786.667969 1275.785156 787.671875 L 1275.785156 973.632812 C 1275.785156 974.636719 1275.882812 975.632812 1276.078125 976.617188 C 1276.277344 977.601562 1276.566406 978.558594 1276.949219 979.484375 C 1277.335938 980.414062 1277.804688 981.292969 1278.363281 982.128906 C 1278.921875 982.964844 1279.554688 983.738281 1280.265625 984.449219 C 1280.976562 985.15625 1281.746094 985.792969 1282.582031 986.347656 C 1283.417969 986.90625 1284.296875 987.378906 1285.226562 987.761719 C 1286.152344 988.148438 1287.109375 988.4375 1288.09375 988.632812 C 1289.082031 988.828125 1290.074219 988.925781 1291.078125 988.925781 C 1292.082031 988.925781 1293.078125 988.828125 1294.0625 988.632812 C 1295.046875 988.4375 1296.003906 988.148438 1296.929688 987.761719 C 1297.859375 987.378906 1298.738281 986.90625 1299.574219 986.347656 C 1300.410156 985.792969 1301.183594 985.15625 1301.890625 984.449219 C 1302.601562 983.738281 1303.238281 982.964844 1303.792969 982.128906 C 1304.351562 981.292969 1304.824219 980.414062 1305.207031 979.484375 C 1305.59375 978.558594 1305.882812 977.601562 1306.078125 976.617188 C 1306.273438 975.632812 1306.371094 974.636719 1306.371094 973.632812 L 1306.371094 787.671875 C 1306.371094 786.667969 1306.273438 785.671875 1306.078125 784.6875 C 1305.882812 783.703125 1305.59375 782.746094 1305.207031 781.820312 C 1304.824219 780.890625 1304.351562 780.011719 1303.792969 779.175781 C 1303.238281 778.339844 1302.601562 777.566406 1301.890625 776.859375 C 1301.183594 776.148438 1300.410156 775.511719 1299.574219 774.957031 C 1298.738281 774.398438 1297.859375 773.925781 1296.929688 773.542969 C 1296.003906 773.15625 1295.046875 772.867188 1294.0625 772.671875 C 1293.078125 772.476562 1292.082031 772.378906 1291.078125 772.378906 Z M 1291.078125 772.378906 " fill-opacity="1" fill-rule="nonzero"/><g clip-path="url(#56f2a4d1f6)"><path fill="#03989e" d="M 1199.320312 811.679688 C 1198.316406 811.679688 1197.324219 811.777344 1196.335938 811.976562 C 1195.351562 812.171875 1194.394531 812.460938 1193.46875 812.84375 C 1192.539062 813.230469 1191.660156 813.699219 1190.824219 814.257812 C 1189.988281 814.816406 1189.21875 815.449219 1188.507812 816.160156 C 1187.796875 816.871094 1187.164062 817.644531 1186.605469 818.476562 C 1186.046875 819.3125 1185.578125 820.195312 1185.191406 821.121094 C 1184.808594 822.050781 1184.519531 823.003906 1184.320312 823.992188 C 1184.125 824.976562 1184.027344 825.96875 1184.027344 826.972656 L 1184.027344 934.023438 C 1184.027344 935.027344 1184.125 936.023438 1184.320312 937.007812 C 1184.519531 937.992188 1184.808594 938.949219 1185.191406 939.878906 C 1185.578125 940.804688 1186.046875 941.6875 1186.605469 942.519531 C 1187.164062 943.355469 1187.796875 944.128906 1188.507812 944.839844 C 1189.21875 945.546875 1189.988281 946.183594 1190.824219 946.742188 C 1191.660156 947.296875 1192.539062 947.769531 1193.46875 948.152344 C 1194.394531 948.539062 1195.351562 948.828125 1196.335938 949.023438 C 1197.324219 949.21875 1198.316406 949.316406 1199.320312 949.316406 C 1200.324219 949.316406 1201.320312 949.21875 1202.304688 949.023438 C 1203.289062 948.828125 1204.246094 948.539062 1205.171875 948.152344 C 1206.101562 947.769531 1206.980469 947.296875 1207.816406 946.742188 C 1208.652344 946.183594 1209.425781 945.546875 1210.132812 944.839844 C 1210.84375 944.128906 1211.480469 943.355469 1212.035156 942.519531 C 1212.59375 941.6875 1213.066406 940.804688 1213.449219 939.878906 C 1213.835938 938.949219 1214.125 937.992188 1214.320312 937.007812 C 1214.515625 936.023438 1214.613281 935.027344 1214.613281 934.023438 L 1214.613281 826.972656 C 1214.613281 825.96875 1214.515625 824.976562 1214.320312 823.992188 C 1214.125 823.003906 1213.835938 822.050781 1213.449219 821.121094 C 1213.066406 820.195312 1212.59375 819.3125 1212.035156 818.476562 C 1211.480469 817.644531 1210.84375 816.871094 1210.132812 816.160156 C 1209.425781 815.449219 1208.652344 814.816406 1207.816406 814.257812 C 1206.980469 813.699219 1206.101562 813.230469 1205.171875 812.84375 C 1204.246094 812.460938 1203.289062 812.171875 1202.304688 811.976562 C 1201.320312 811.777344 1200.324219 811.679688 1199.320312 811.679688 Z M 1199.320312 811.679688 " fill-opacity="1" fill-rule="nonzero"/></g><path fill="#03989e" d="M 1352.25 819.785156 C 1352.25 818.78125 1352.152344 817.789062 1351.957031 816.804688 C 1351.761719 815.816406 1351.472656 814.863281 1351.085938 813.933594 C 1350.703125 813.007812 1350.230469 812.125 1349.671875 811.289062 C 1349.117188 810.457031 1348.480469 809.683594 1347.769531 808.972656 C 1347.0625 808.261719 1346.289062 807.628906 1345.453125 807.070312 C 1344.617188 806.511719 1343.738281 806.042969 1342.808594 805.65625 C 1341.882812 805.273438 1340.925781 804.984375 1339.941406 804.789062 C 1338.957031 804.589844 1337.960938 804.492188 1336.957031 804.492188 C 1335.953125 804.492188 1334.957031 804.589844 1333.972656 804.789062 C 1332.988281 804.984375 1332.03125 805.273438 1331.105469 805.65625 C 1330.175781 806.042969 1329.296875 806.511719 1328.460938 807.070312 C 1327.625 807.628906 1326.855469 808.261719 1326.144531 808.972656 C 1325.433594 809.683594 1324.800781 810.457031 1324.242188 811.289062 C 1323.683594 812.125 1323.214844 813.007812 1322.828125 813.933594 C 1322.445312 814.863281 1322.15625 815.816406 1321.957031 816.804688 C 1321.761719 817.789062 1321.664062 818.78125 1321.664062 819.785156 L 1321.664062 942.128906 C 1321.664062 943.132812 1321.761719 944.128906 1321.957031 945.113281 C 1322.15625 946.097656 1322.445312 947.054688 1322.828125 947.980469 C 1323.214844 948.910156 1323.683594 949.792969 1324.242188 950.625 C 1324.800781 951.460938 1325.433594 952.234375 1326.144531 952.945312 C 1326.855469 953.652344 1327.625 954.289062 1328.460938 954.84375 C 1329.296875 955.402344 1330.175781 955.875 1331.105469 956.257812 C 1332.03125 956.644531 1332.988281 956.933594 1333.972656 957.128906 C 1334.957031 957.324219 1335.953125 957.421875 1336.957031 957.421875 C 1337.960938 957.421875 1338.957031 957.324219 1339.941406 957.128906 C 1340.925781 956.933594 1341.882812 956.644531 1342.808594 956.257812 C 1343.738281 955.875 1344.617188 955.402344 1345.453125 954.84375 C 1346.289062 954.289062 1347.0625 953.652344 1347.769531 952.945312 C 1348.480469 952.234375 1349.117188 951.460938 1349.671875 950.625 C 1350.230469 949.792969 1350.703125 948.910156 1351.085938 947.980469 C 1351.472656 947.054688 1351.761719 946.097656 1351.957031 945.113281 C 1352.152344 944.128906 1352.25 943.132812 1352.25 942.128906 Z M 1352.25 819.785156 " fill-opacity="1" fill-rule="nonzero"/><path fill="#03989e" d="M 1245.199219 835.078125 C 1244.195312 835.078125 1243.203125 835.175781 1242.214844 835.375 C 1241.230469 835.570312 1240.273438 835.859375 1239.347656 836.242188 C 1238.417969 836.628906 1237.539062 837.097656 1236.703125 837.65625 C 1235.867188 838.214844 1235.097656 838.847656 1234.386719 839.558594 C 1233.675781 840.269531 1233.042969 841.042969 1232.484375 841.875 C 1231.925781 842.710938 1231.457031 843.59375 1231.070312 844.519531 C 1230.6875 845.449219 1230.398438 846.402344 1230.199219 847.390625 C 1230.003906 848.375 1229.90625 849.367188 1229.90625 850.371094 L 1229.90625 911.542969 C 1229.90625 912.546875 1230.003906 913.542969 1230.199219 914.527344 C 1230.398438 915.511719 1230.6875 916.46875 1231.070312 917.394531 C 1231.457031 918.324219 1231.925781 919.207031 1232.484375 920.039062 C 1233.042969 920.875 1233.675781 921.648438 1234.386719 922.359375 C 1235.097656 923.066406 1235.867188 923.703125 1236.703125 924.257812 C 1237.539062 924.816406 1238.417969 925.289062 1239.347656 925.671875 C 1240.273438 926.058594 1241.230469 926.347656 1242.214844 926.542969 C 1243.203125 926.738281 1244.195312 926.835938 1245.199219 926.835938 C 1246.203125 926.835938 1247.199219 926.738281 1248.183594 926.542969 C 1249.167969 926.347656 1250.125 926.058594 1251.050781 925.671875 C 1251.980469 925.289062 1252.859375 924.816406 1253.695312 924.257812 C 1254.53125 923.703125 1255.304688 923.066406 1256.011719 922.359375 C 1256.722656 921.648438 1257.359375 920.875 1257.914062 920.039062 C 1258.472656 919.207031 1258.945312 918.324219 1259.328125 917.394531 C 1259.714844 916.46875 1260.003906 915.511719 1260.199219 914.527344 C 1260.394531 913.542969 1260.492188 912.546875 1260.492188 911.542969 L 1260.492188 850.371094 C 1260.492188 849.367188 1260.394531 848.375 1260.199219 847.390625 C 1260.003906 846.402344 1259.714844 845.449219 1259.328125 844.519531 C 1258.945312 843.59375 1258.472656 842.710938 1257.914062 841.875 C 1257.359375 841.042969 1256.722656 840.269531 1256.011719 839.558594 C 1255.304688 838.847656 1254.53125 838.214844 1253.695312 837.65625 C 1252.859375 837.097656 1251.980469 836.628906 1251.050781 836.242188 C 1250.125 835.859375 1249.167969 835.570312 1248.183594 835.375 C 1247.199219 835.175781 1246.203125 835.078125 1245.199219 835.078125 Z M 1245.199219 835.078125 " fill-opacity="1" fill-rule="nonzero"/><g fill="#ffffff" fill-opacity="1"><g transform="translate(519.607065, 1440.6001)"><g><path d="M 87.75 -176 L 20.109375 -176 L 20.109375 0 L 58.078125 0 L 58.078125 -54.8125 L 87.75 -54.8125 C 123.203125 -54.8125 149.859375 -80.71875 149.859375 -115.40625 C 149.859375 -150.109375 122.953125 -176 87.75 -176 Z M 85.984375 -90.015625 L 58.078125 -90.015625 L 58.078125 -140.546875 L 85.984375 -140.546875 C 101.078125 -140.546875 111.390625 -130 111.390625 -115.40625 C 111.390625 -100.828125 101.078125 -90.015625 85.984375 -90.015625 Z M 85.984375 -90.015625 "/></g></g></g><g fill="#ffffff" fill-opacity="1"><g transform="translate(675.975252, 1440.6001)"><g><path d="M 81.96875 4.015625 C 123.953125 4.015625 155.390625 -26.90625 155.390625 -67.890625 C 155.390625 -108.875 123.953125 -139.546875 81.96875 -139.546875 C 39.984375 -139.546875 8.546875 -108.875 8.546875 -67.890625 C 8.546875 -26.90625 39.984375 4.015625 81.96875 4.015625 Z M 81.96875 -30.671875 C 60.84375 -30.671875 45.765625 -45.765625 45.765625 -67.890625 C 45.765625 -89.765625 60.84375 -105.09375 81.96875 -105.09375 C 103.09375 -105.09375 118.171875 -89.765625 118.171875 -67.890625 C 118.171875 -45.765625 103.09375 -30.671875 81.96875 -30.671875 Z M 81.96875 -30.671875 "/></g></g></g><g fill="#ffffff" fill-opacity="1"><g transform="translate(840.136698, 1440.6001)"><g><path d="M 117.171875 -184.5625 L 117.171875 -128.234375 C 106.609375 -135.53125 94.03125 -139.546875 79.953125 -139.546875 C 38.71875 -139.546875 8.546875 -108.875 8.546875 -67.640625 C 8.546875 -26.65625 38.71875 4.28125 79.953125 4.28125 C 96.546875 4.28125 111.140625 -1.515625 122.453125 -11.0625 L 126.71875 0.25 L 153.875 0.25 L 153.875 -184.5625 Z M 82.96875 -30.421875 C 61.609375 -30.421875 46.015625 -46.515625 46.015625 -67.640625 C 46.015625 -89.015625 61.609375 -104.84375 82.96875 -104.84375 C 104.34375 -104.84375 119.9375 -89.015625 119.9375 -67.640625 C 119.9375 -46.515625 104.34375 -30.421875 82.96875 -30.421875 Z M 82.96875 -30.421875 "/></g></g></g><g fill="#ffffff" fill-opacity="1"><g transform="translate(1011.839995, 1440.6001)"><g><path d="M 80.71875 4.015625 C 116.171875 4.015625 144.078125 -19.109375 150.359375 -53.3125 L 113.390625 -53.3125 C 107.109375 -38.71875 95.546875 -30.671875 80.71875 -30.671875 C 61.09375 -30.671875 45.765625 -47.015625 45.765625 -67.890625 C 45.765625 -89.015625 60.84375 -105.09375 80.71875 -105.09375 C 95.296875 -105.09375 107.609375 -97.0625 113.390625 -83.734375 L 149.859375 -83.734375 C 143.3125 -117.171875 116.171875 -139.546875 80.96875 -139.546875 C 39.734375 -139.546875 8.546875 -108.875 8.546875 -68.140625 C 8.546875 -27.40625 39.734375 4.015625 80.71875 4.015625 Z M 80.71875 4.015625 "/></g></g></g><g fill="#ffffff" fill-opacity="1"><g transform="translate(1168.962334, 1440.6001)"><g><path d="M 128.234375 -135.78125 L 124.46875 -122.953125 C 112.640625 -133.265625 97.3125 -139.546875 79.703125 -139.546875 C 38.96875 -139.546875 8.546875 -108.875 8.546875 -67.890625 C 8.546875 -26.90625 38.96875 4.015625 79.703125 4.015625 C 97.0625 4.015625 112.140625 -2.015625 123.703125 -12.328125 L 126.96875 0 L 155.640625 0 L 155.640625 -135.78125 Z M 82.71875 -30.671875 C 61.34375 -30.671875 45.765625 -46.765625 45.765625 -67.890625 C 45.765625 -89.265625 61.34375 -105.09375 82.71875 -105.09375 C 104.09375 -105.09375 119.6875 -89.265625 119.6875 -67.890625 C 119.6875 -46.515625 104.09375 -30.671875 82.71875 -30.671875 Z M 82.71875 -30.671875 "/></g></g></g><g fill="#ffffff" fill-opacity="1"><g transform="translate(1342.425411, 1440.6001)"><g><path d="M 65.625 4.015625 C 100.078125 4.015625 122.703125 -14.078125 122.703125 -41.734375 C 122.703125 -74.921875 94.28125 -79.453125 72.15625 -83.484375 C 58.078125 -85.984375 46.515625 -88.25 46.515625 -97.3125 C 46.515625 -105.09375 53.3125 -110.125 64.625 -110.125 C 77.4375 -110.125 84.984375 -104.84375 85.234375 -94.03125 L 120.1875 -94.03125 C 119.9375 -121.1875 98.3125 -139.546875 65.625 -139.546875 C 32.9375 -139.546875 11.0625 -121.703125 11.0625 -96.046875 C 11.0625 -64.109375 38.71875 -58.328125 60.34375 -54.5625 C 74.671875 -52.296875 86.5 -49.53125 86.5 -40.234375 C 86.5 -31.171875 77.1875 -26.40625 67.140625 -26.40625 C 54.0625 -26.40625 44.75 -32.4375 44.5 -44.5 L 8.796875 -44.5 C 8.796875 -15.59375 31.6875 4.015625 65.625 4.015625 Z M 65.625 4.015625 "/></g></g></g><g fill="#ffffff" fill-opacity="1"><g transform="translate(1474.4082, 1440.6001)"><g><path d="M 83.984375 -32.6875 C 70.40625 -32.6875 62.859375 -40.234375 62.859375 -53.3125 L 62.859375 -106.109375 L 99.828125 -106.109375 L 99.828125 -135.78125 L 62.359375 -135.78125 L 62.359375 -170.984375 L 55.3125 -170.984375 L 1.765625 -114.15625 L 1.765625 -106.109375 L 26.15625 -106.109375 L 26.15625 -48.28125 C 26.15625 -18.359375 44.5 0 74.421875 0 L 100.578125 0 L 100.578125 -32.6875 Z M 83.984375 -32.6875 "/></g></g></g><g fill="#ffffff" fill-opacity="1"><g transform="translate(1582.508399, 1440.6001)"><g><path d="M 114.40625 -88.5 C 125.71875 -97.0625 131.5 -108.625 131.5 -122.703125 C 131.5 -150.859375 108.125 -170.46875 73.921875 -170.46875 C 39.734375 -170.46875 16.09375 -150.609375 16.09375 -122.703125 C 16.09375 -108.875 21.875 -97.5625 33.1875 -88.75 C 18.609375 -79.453125 11.5625 -66.625 11.5625 -50.28125 C 11.5625 -18.859375 36.96875 3.015625 73.671875 3.015625 C 110.375 3.015625 136.28125 -19.109375 136.28125 -50.28125 C 136.28125 -66.625 128.984375 -79.453125 114.40625 -88.5 Z M 73.921875 -141.3125 C 87.25 -141.3125 96.546875 -133.015625 96.546875 -121.703125 C 96.546875 -110.375 87.25 -102.078125 73.921875 -102.078125 C 60.59375 -102.078125 51.046875 -110.375 51.046875 -121.703125 C 51.046875 -133.015625 60.59375 -141.3125 73.921875 -141.3125 Z M 73.921875 -27.65625 C 58.078125 -27.65625 47.265625 -37.21875 47.265625 -50.796875 C 47.265625 -64.375 58.078125 -73.921875 73.921875 -73.921875 C 90.015625 -73.921875 100.578125 -64.375 100.578125 -50.796875 C 100.578125 -37.21875 90.015625 -27.65625 73.921875 -27.65625 Z M 73.921875 -27.65625 "/></g></g></g></svg>