<svg xmlns="http://www.w3.org/2000/svg" xmlns:xlink="http://www.w3.org/1999/xlink" width="3000" zoomAndPan="magnify" viewBox="0 0 2250 2250.000011" height="3000" preserveAspectRatio="xMidYMid meet" version="1.0"><defs><clipPath id="be43a47288"><path d="M 0.5 794 L 1231 794 L 1231 1684 L 0.5 1684 Z M 0.5 794 " clip-rule="nonzero"/></clipPath><clipPath id="f33dde10cb"><path d="M 1021 565.0625 L 2249.5 565.0625 L 2249.5 1455 L 1021 1455 Z M 1021 565.0625 " clip-rule="nonzero"/></clipPath><clipPath id="f190609219"><path d="M 910 1084 L 985.605469 1084 L 985.605469 1425 L 910 1425 Z M 910 1084 " clip-rule="nonzero"/></clipPath><clipPath id="a3a88d9ad2"><path d="M 1270.496094 847 L 1346 847 L 1346 1187 L 1270.496094 1187 Z M 1270.496094 847 " clip-rule="nonzero"/></clipPath></defs><g clip-path="url(#be43a47288)"><path fill="#ff5757" d="M 0.402344 960.703125 L 340.789062 1235.742188 L 340.789062 1409.382812 C 340.789062 1561.007812 463.707031 1683.933594 615.339844 1683.933594 L 955.9375 1683.933594 C 1107.5625 1683.933594 1230.464844 1561.007812 1230.464844 1409.382812 L 1230.464844 1068.792969 C 1230.464844 917.167969 1107.5625 794.25 955.9375 794.25 L 615.339844 794.25 C 463.707031 794.25 340.789062 917.167969 340.789062 1068.792969 L 340.789062 1112.988281 L 0.402344 960.703125 " fill-opacity="1" fill-rule="nonzero"/></g><g clip-path="url(#f33dde10cb)"><path fill="#03989e" d="M 1634.46875 1454.949219 L 1293.855469 1454.949219 C 1271.125 1454.949219 1249.054688 1452.175781 1227.917969 1446.980469 C 1229.609375 1434.683594 1230.464844 1422.152344 1230.464844 1409.382812 L 1230.464844 1068.792969 C 1230.464844 939.902344 1141.65625 831.746094 1021.875 802.21875 C 1040.199219 668.386719 1155 565.265625 1293.855469 565.265625 L 1634.46875 565.265625 C 1786.09375 565.265625 1909.011719 688.191406 1909.011719 839.816406 L 1909.011719 1013.457031 L 2249.398438 1288.496094 L 1909.011719 1136.210938 L 1909.011719 1180.40625 C 1909.011719 1332.03125 1786.09375 1454.949219 1634.46875 1454.949219 " fill-opacity="1" fill-rule="nonzero"/></g><path fill="#7f5576" d="M 1227.917969 1446.980469 C 1108.144531 1417.453125 1019.320312 1309.300781 1019.320312 1180.40625 L 1019.320312 839.816406 C 1019.320312 827.046875 1020.191406 814.515625 1021.875 802.21875 C 1141.65625 831.746094 1230.464844 939.902344 1230.464844 1068.792969 L 1230.464844 1409.382812 C 1230.464844 1422.152344 1229.609375 1434.683594 1227.917969 1446.980469 " fill-opacity="1" fill-rule="nonzero"/><path fill="#ffffff" d="M 721.738281 988.0625 C 722.972656 988.0625 724.203125 988.125 725.429688 988.246094 C 726.660156 988.367188 727.878906 988.546875 729.089844 988.789062 C 730.300781 989.027344 731.496094 989.328125 732.679688 989.6875 C 733.859375 990.046875 735.023438 990.460938 736.164062 990.933594 C 737.300781 991.40625 738.417969 991.933594 739.507812 992.515625 C 740.59375 993.097656 741.652344 993.730469 742.679688 994.417969 C 743.707031 995.101562 744.695312 995.835938 745.652344 996.621094 C 746.605469 997.402344 747.519531 998.230469 748.390625 999.105469 C 749.265625 999.976562 750.09375 1000.890625 750.875 1001.84375 C 751.660156 1002.800781 752.394531 1003.789062 753.078125 1004.816406 C 753.765625 1005.84375 754.398438 1006.902344 754.980469 1007.988281 C 755.5625 1009.078125 756.089844 1010.191406 756.5625 1011.332031 C 757.035156 1012.472656 757.449219 1013.636719 757.808594 1014.816406 C 758.167969 1015.996094 758.46875 1017.195312 758.707031 1018.40625 C 758.949219 1019.617188 759.128906 1020.835938 759.25 1022.0625 C 759.371094 1023.292969 759.433594 1024.523438 759.433594 1025.757812 L 759.433594 1484.136719 C 759.433594 1485.371094 759.371094 1486.601562 759.25 1487.832031 C 759.128906 1489.058594 758.949219 1490.277344 758.707031 1491.488281 C 758.46875 1492.699219 758.167969 1493.894531 757.808594 1495.078125 C 757.449219 1496.257812 757.035156 1497.421875 756.5625 1498.5625 C 756.089844 1499.703125 755.5625 1500.816406 754.980469 1501.90625 C 754.398438 1502.992188 753.765625 1504.050781 753.078125 1505.078125 C 752.394531 1506.105469 751.660156 1507.09375 750.875 1508.050781 C 750.09375 1509.003906 749.265625 1509.917969 748.390625 1510.789062 C 747.519531 1511.664062 746.605469 1512.492188 745.652344 1513.273438 C 744.695312 1514.058594 743.707031 1514.792969 742.679688 1515.476562 C 741.652344 1516.164062 740.59375 1516.796875 739.507812 1517.378906 C 738.417969 1517.960938 737.300781 1518.488281 736.164062 1518.960938 C 735.023438 1519.433594 733.859375 1519.847656 732.679688 1520.207031 C 731.496094 1520.566406 730.300781 1520.867188 729.089844 1521.105469 C 727.878906 1521.347656 726.660156 1521.527344 725.429688 1521.648438 C 724.203125 1521.769531 722.972656 1521.832031 721.738281 1521.832031 C 720.503906 1521.832031 719.269531 1521.769531 718.042969 1521.648438 C 716.8125 1521.527344 715.59375 1521.347656 714.382812 1521.105469 C 713.171875 1520.867188 711.976562 1520.566406 710.792969 1520.207031 C 709.613281 1519.847656 708.453125 1519.433594 707.3125 1518.960938 C 706.171875 1518.488281 705.054688 1517.960938 703.96875 1517.378906 C 702.878906 1516.796875 701.820312 1516.164062 700.792969 1515.476562 C 699.769531 1514.792969 698.777344 1514.058594 697.824219 1513.273438 C 696.867188 1512.492188 695.953125 1511.664062 695.082031 1510.789062 C 694.210938 1509.917969 693.382812 1509.003906 692.597656 1508.050781 C 691.816406 1507.09375 691.078125 1506.105469 690.394531 1505.078125 C 689.707031 1504.050781 689.074219 1502.992188 688.492188 1501.90625 C 687.910156 1500.816406 687.382812 1499.703125 686.910156 1498.5625 C 686.4375 1497.421875 686.023438 1496.257812 685.664062 1495.078125 C 685.304688 1493.894531 685.007812 1492.699219 684.765625 1491.488281 C 684.523438 1490.277344 684.34375 1489.058594 684.222656 1487.832031 C 684.101562 1486.601562 684.042969 1485.371094 684.042969 1484.136719 L 684.042969 1025.757812 C 684.042969 1024.523438 684.101562 1023.292969 684.222656 1022.0625 C 684.34375 1020.835938 684.523438 1019.617188 684.765625 1018.40625 C 685.007812 1017.195312 685.304688 1015.996094 685.664062 1014.816406 C 686.023438 1013.636719 686.4375 1012.472656 686.910156 1011.332031 C 687.382812 1010.191406 687.910156 1009.078125 688.492188 1007.988281 C 689.074219 1006.902344 689.707031 1005.84375 690.394531 1004.816406 C 691.078125 1003.789062 691.816406 1002.800781 692.597656 1001.84375 C 693.382812 1000.890625 694.210938 999.976562 695.082031 999.105469 C 695.953125 998.230469 696.867188 997.402344 697.824219 996.621094 C 698.777344 995.835938 699.769531 995.101562 700.792969 994.417969 C 701.820312 993.730469 702.878906 993.097656 703.96875 992.515625 C 705.054688 991.933594 706.171875 991.40625 707.3125 990.933594 C 708.453125 990.460938 709.613281 990.046875 710.792969 989.6875 C 711.976562 989.328125 713.171875 989.027344 714.382812 988.789062 C 715.59375 988.546875 716.8125 988.367188 718.042969 988.246094 C 719.269531 988.125 720.503906 988.0625 721.738281 988.0625 Z M 721.738281 988.0625 " fill-opacity="1" fill-rule="nonzero"/><g clip-path="url(#f190609219)"><path fill="#ffffff" d="M 947.910156 1084.941406 C 949.144531 1084.941406 950.375 1085 951.605469 1085.121094 C 952.832031 1085.242188 954.050781 1085.425781 955.261719 1085.664062 C 956.472656 1085.90625 957.671875 1086.207031 958.851562 1086.5625 C 960.03125 1086.921875 961.195312 1087.335938 962.335938 1087.808594 C 963.476562 1088.28125 964.589844 1088.808594 965.679688 1089.390625 C 966.765625 1089.972656 967.824219 1090.609375 968.851562 1091.292969 C 969.878906 1091.980469 970.867188 1092.714844 971.824219 1093.496094 C 972.777344 1094.28125 973.691406 1095.109375 974.5625 1095.980469 C 975.4375 1096.855469 976.265625 1097.769531 977.046875 1098.722656 C 977.832031 1099.675781 978.566406 1100.667969 979.25 1101.695312 C 979.9375 1102.71875 980.570312 1103.777344 981.152344 1104.867188 C 981.734375 1105.957031 982.261719 1107.070312 982.734375 1108.210938 C 983.207031 1109.351562 983.621094 1110.511719 983.980469 1111.695312 C 984.339844 1112.875 984.640625 1114.070312 984.878906 1115.28125 C 985.121094 1116.492188 985.300781 1117.710938 985.421875 1118.941406 C 985.542969 1120.171875 985.605469 1121.402344 985.605469 1122.636719 L 985.605469 1386.503906 C 985.605469 1387.738281 985.542969 1388.96875 985.421875 1390.199219 C 985.300781 1391.425781 985.121094 1392.648438 984.878906 1393.859375 C 984.640625 1395.070312 984.339844 1396.265625 983.980469 1397.445312 C 983.625 1398.628906 983.207031 1399.789062 982.734375 1400.929688 C 982.261719 1402.070312 981.734375 1403.183594 981.152344 1404.273438 C 980.570312 1405.363281 979.9375 1406.421875 979.25 1407.445312 C 978.566406 1408.472656 977.832031 1409.464844 977.046875 1410.417969 C 976.265625 1411.371094 975.4375 1412.285156 974.5625 1413.160156 C 973.691406 1414.03125 972.777344 1414.859375 971.824219 1415.644531 C 970.867188 1416.425781 969.878906 1417.160156 968.851562 1417.847656 C 967.824219 1418.53125 966.765625 1419.167969 965.679688 1419.75 C 964.589844 1420.332031 963.476562 1420.859375 962.335938 1421.328125 C 961.195312 1421.800781 960.03125 1422.21875 958.851562 1422.578125 C 957.671875 1422.933594 956.472656 1423.234375 955.261719 1423.476562 C 954.050781 1423.714844 952.832031 1423.898438 951.605469 1424.019531 C 950.375 1424.140625 949.144531 1424.199219 947.910156 1424.199219 C 946.675781 1424.199219 945.441406 1424.140625 944.214844 1424.019531 C 942.984375 1423.898438 941.765625 1423.714844 940.554688 1423.476562 C 939.34375 1423.234375 938.148438 1422.933594 936.964844 1422.578125 C 935.785156 1422.21875 934.625 1421.800781 933.484375 1421.328125 C 932.34375 1420.859375 931.230469 1420.332031 930.140625 1419.75 C 929.050781 1419.167969 927.992188 1418.53125 926.964844 1417.847656 C 925.941406 1417.160156 924.949219 1416.425781 923.996094 1415.644531 C 923.042969 1414.859375 922.128906 1414.03125 921.253906 1413.160156 C 920.382812 1412.285156 919.554688 1411.371094 918.769531 1410.417969 C 917.988281 1409.464844 917.253906 1408.472656 916.566406 1407.445312 C 915.878906 1406.421875 915.246094 1405.363281 914.664062 1404.273438 C 914.082031 1403.183594 913.554688 1402.070312 913.082031 1400.929688 C 912.609375 1399.789062 912.195312 1398.628906 911.835938 1397.445312 C 911.480469 1396.265625 911.179688 1395.070312 910.9375 1393.859375 C 910.695312 1392.648438 910.515625 1391.425781 910.394531 1390.199219 C 910.273438 1388.96875 910.214844 1387.738281 910.214844 1386.503906 L 910.214844 1122.636719 C 910.214844 1121.402344 910.273438 1120.171875 910.394531 1118.941406 C 910.515625 1117.710938 910.695312 1116.492188 910.9375 1115.28125 C 911.179688 1114.070312 911.480469 1112.875 911.835938 1111.695312 C 912.195312 1110.511719 912.609375 1109.351562 913.082031 1108.210938 C 913.554688 1107.070312 914.082031 1105.957031 914.664062 1104.867188 C 915.246094 1103.777344 915.878906 1102.71875 916.566406 1101.695312 C 917.253906 1100.667969 917.988281 1099.675781 918.769531 1098.722656 C 919.554688 1097.769531 920.382812 1096.855469 921.253906 1095.980469 C 922.128906 1095.109375 923.042969 1094.28125 923.996094 1093.496094 C 924.949219 1092.714844 925.941406 1091.980469 926.964844 1091.292969 C 927.992188 1090.609375 929.050781 1089.972656 930.140625 1089.390625 C 931.230469 1088.808594 932.34375 1088.28125 933.484375 1087.808594 C 934.625 1087.335938 935.785156 1086.921875 936.96875 1086.5625 C 938.148438 1086.207031 939.34375 1085.90625 940.554688 1085.664062 C 941.765625 1085.425781 942.984375 1085.242188 944.214844 1085.121094 C 945.441406 1085 946.675781 1084.941406 947.910156 1084.941406 Z M 947.910156 1084.941406 " fill-opacity="1" fill-rule="nonzero"/></g><path fill="#ffffff" d="M 570.953125 1104.917969 C 570.953125 1103.683594 571.015625 1102.453125 571.136719 1101.222656 C 571.257812 1099.996094 571.4375 1098.777344 571.679688 1097.566406 C 571.921875 1096.355469 572.21875 1095.160156 572.578125 1093.976562 C 572.9375 1092.796875 573.351562 1091.632812 573.824219 1090.492188 C 574.296875 1089.351562 574.824219 1088.238281 575.40625 1087.148438 C 575.988281 1086.0625 576.621094 1085.003906 577.308594 1083.976562 C 577.992188 1082.949219 578.726562 1081.960938 579.511719 1081.003906 C 580.292969 1080.050781 581.121094 1079.136719 581.996094 1078.265625 C 582.867188 1077.390625 583.78125 1076.5625 584.738281 1075.78125 C 585.691406 1074.996094 586.679688 1074.261719 587.707031 1073.578125 C 588.734375 1072.890625 589.792969 1072.257812 590.882812 1071.675781 C 591.96875 1071.09375 593.085938 1070.566406 594.226562 1070.09375 C 595.367188 1069.621094 596.527344 1069.207031 597.707031 1068.847656 C 598.890625 1068.488281 600.085938 1068.1875 601.296875 1067.949219 C 602.507812 1067.707031 603.726562 1067.527344 604.957031 1067.40625 C 606.183594 1067.285156 607.414062 1067.222656 608.652344 1067.222656 C 609.886719 1067.222656 611.117188 1067.285156 612.34375 1067.40625 C 613.574219 1067.527344 614.792969 1067.707031 616.003906 1067.949219 C 617.214844 1068.1875 618.410156 1068.488281 619.59375 1068.847656 C 620.773438 1069.207031 621.933594 1069.621094 623.074219 1070.09375 C 624.214844 1070.566406 625.332031 1071.09375 626.421875 1071.675781 C 627.507812 1072.257812 628.566406 1072.890625 629.59375 1073.578125 C 630.621094 1074.261719 631.609375 1074.996094 632.5625 1075.78125 C 633.519531 1076.5625 634.433594 1077.390625 635.304688 1078.265625 C 636.179688 1079.136719 637.007812 1080.050781 637.789062 1081.003906 C 638.574219 1081.960938 639.308594 1082.949219 639.992188 1083.976562 C 640.679688 1085.003906 641.3125 1086.0625 641.894531 1087.148438 C 642.476562 1088.238281 643.003906 1089.351562 643.476562 1090.492188 C 643.949219 1091.632812 644.363281 1092.796875 644.722656 1093.976562 C 645.082031 1095.160156 645.378906 1096.355469 645.621094 1097.566406 C 645.863281 1098.777344 646.042969 1099.996094 646.164062 1101.222656 C 646.285156 1102.453125 646.347656 1103.683594 646.347656 1104.917969 L 646.347656 1406.484375 C 646.347656 1407.71875 646.285156 1408.949219 646.164062 1410.175781 C 646.042969 1411.40625 645.863281 1412.625 645.621094 1413.835938 C 645.378906 1415.046875 645.082031 1416.242188 644.722656 1417.425781 C 644.363281 1418.605469 643.949219 1419.765625 643.476562 1420.90625 C 643.003906 1422.046875 642.476562 1423.164062 641.894531 1424.253906 C 641.3125 1425.339844 640.679688 1426.398438 639.992188 1427.425781 C 639.308594 1428.453125 638.574219 1429.441406 637.789062 1430.394531 C 637.007812 1431.351562 636.179688 1432.265625 635.304688 1433.136719 C 634.433594 1434.011719 633.519531 1434.839844 632.5625 1435.621094 C 631.609375 1436.40625 630.621094 1437.140625 629.59375 1437.824219 C 628.566406 1438.511719 627.507812 1439.144531 626.421875 1439.726562 C 625.332031 1440.308594 624.214844 1440.835938 623.074219 1441.308594 C 621.933594 1441.78125 620.773438 1442.195312 619.59375 1442.554688 C 618.410156 1442.914062 617.214844 1443.210938 616.003906 1443.453125 C 614.792969 1443.695312 613.574219 1443.875 612.34375 1443.996094 C 611.117188 1444.117188 609.886719 1444.179688 608.652344 1444.179688 C 607.414062 1444.179688 606.183594 1444.117188 604.957031 1443.996094 C 603.726562 1443.875 602.507812 1443.695312 601.296875 1443.453125 C 600.085938 1443.214844 598.890625 1442.914062 597.707031 1442.554688 C 596.527344 1442.195312 595.367188 1441.78125 594.226562 1441.308594 C 593.085938 1440.835938 591.96875 1440.308594 590.882812 1439.726562 C 589.792969 1439.144531 588.734375 1438.511719 587.707031 1437.824219 C 586.679688 1437.140625 585.691406 1436.40625 584.738281 1435.621094 C 583.78125 1434.839844 582.867188 1434.011719 581.996094 1433.136719 C 581.121094 1432.265625 580.292969 1431.351562 579.511719 1430.394531 C 578.726562 1429.441406 577.992188 1428.453125 577.308594 1427.425781 C 576.621094 1426.398438 575.988281 1425.339844 575.40625 1424.253906 C 574.824219 1423.164062 574.296875 1422.046875 573.824219 1420.90625 C 573.351562 1419.765625 572.9375 1418.605469 572.578125 1417.425781 C 572.21875 1416.242188 571.921875 1415.046875 571.679688 1413.835938 C 571.4375 1412.625 571.257812 1411.40625 571.136719 1410.175781 C 571.015625 1408.949219 570.953125 1407.71875 570.953125 1406.484375 Z M 570.953125 1104.917969 " fill-opacity="1" fill-rule="nonzero"/><path fill="#ffffff" d="M 834.824219 1142.613281 C 836.058594 1142.613281 837.289062 1142.675781 838.519531 1142.796875 C 839.746094 1142.917969 840.964844 1143.097656 842.175781 1143.339844 C 843.386719 1143.578125 844.582031 1143.878906 845.765625 1144.238281 C 846.945312 1144.597656 848.109375 1145.011719 849.25 1145.484375 C 850.390625 1145.957031 851.503906 1146.484375 852.59375 1147.066406 C 853.679688 1147.648438 854.738281 1148.28125 855.765625 1148.96875 C 856.792969 1149.652344 857.78125 1150.386719 858.738281 1151.171875 C 859.691406 1151.953125 860.605469 1152.78125 861.476562 1153.65625 C 862.351562 1154.527344 863.179688 1155.441406 863.960938 1156.398438 C 864.746094 1157.351562 865.480469 1158.339844 866.164062 1159.367188 C 866.851562 1160.394531 867.484375 1161.453125 868.066406 1162.539062 C 868.648438 1163.628906 869.175781 1164.746094 869.648438 1165.886719 C 870.121094 1167.027344 870.535156 1168.1875 870.894531 1169.367188 C 871.253906 1170.550781 871.554688 1171.746094 871.792969 1172.957031 C 872.035156 1174.167969 872.214844 1175.386719 872.335938 1176.617188 C 872.457031 1177.84375 872.519531 1179.074219 872.519531 1180.308594 L 872.519531 1331.09375 C 872.519531 1332.328125 872.457031 1333.558594 872.335938 1334.785156 C 872.214844 1336.015625 872.035156 1337.234375 871.792969 1338.445312 C 871.554688 1339.65625 871.253906 1340.851562 870.894531 1342.035156 C 870.535156 1343.214844 870.121094 1344.375 869.648438 1345.515625 C 869.175781 1346.65625 868.648438 1347.773438 868.066406 1348.859375 C 867.484375 1349.949219 866.851562 1351.007812 866.164062 1352.035156 C 865.480469 1353.0625 864.746094 1354.050781 863.960938 1355.003906 C 863.179688 1355.960938 862.351562 1356.875 861.476562 1357.746094 C 860.605469 1358.621094 859.691406 1359.449219 858.738281 1360.230469 C 857.78125 1361.015625 856.792969 1361.75 855.765625 1362.433594 C 854.738281 1363.121094 853.679688 1363.753906 852.59375 1364.335938 C 851.503906 1364.917969 850.390625 1365.445312 849.25 1365.917969 C 848.109375 1366.390625 846.945312 1366.804688 845.765625 1367.164062 C 844.582031 1367.523438 843.386719 1367.820312 842.175781 1368.0625 C 840.964844 1368.304688 839.746094 1368.484375 838.519531 1368.605469 C 837.289062 1368.726562 836.058594 1368.789062 834.824219 1368.789062 C 833.589844 1368.789062 832.355469 1368.726562 831.128906 1368.605469 C 829.898438 1368.484375 828.679688 1368.304688 827.46875 1368.0625 C 826.257812 1367.820312 825.0625 1367.523438 823.878906 1367.164062 C 822.699219 1366.804688 821.539062 1366.390625 820.398438 1365.917969 C 819.257812 1365.445312 818.140625 1364.917969 817.054688 1364.335938 C 815.964844 1363.753906 814.90625 1363.121094 813.878906 1362.433594 C 812.855469 1361.75 811.863281 1361.015625 810.910156 1360.230469 C 809.953125 1359.449219 809.042969 1358.621094 808.167969 1357.746094 C 807.296875 1356.875 806.46875 1355.960938 805.683594 1355.003906 C 804.902344 1354.050781 804.167969 1353.0625 803.480469 1352.035156 C 802.792969 1351.007812 802.160156 1349.949219 801.578125 1348.859375 C 800.996094 1347.773438 800.46875 1346.65625 799.996094 1345.515625 C 799.523438 1344.375 799.109375 1343.214844 798.75 1342.035156 C 798.390625 1340.851562 798.09375 1339.65625 797.851562 1338.445312 C 797.609375 1337.234375 797.429688 1336.015625 797.308594 1334.785156 C 797.1875 1333.558594 797.128906 1332.328125 797.128906 1331.09375 L 797.128906 1180.308594 C 797.128906 1179.074219 797.1875 1177.84375 797.308594 1176.617188 C 797.429688 1175.386719 797.609375 1174.167969 797.851562 1172.957031 C 798.09375 1171.746094 798.390625 1170.550781 798.75 1169.367188 C 799.109375 1168.1875 799.523438 1167.027344 799.996094 1165.882812 C 800.46875 1164.746094 800.996094 1163.628906 801.578125 1162.539062 C 802.160156 1161.453125 802.792969 1160.394531 803.480469 1159.367188 C 804.167969 1158.339844 804.902344 1157.351562 805.683594 1156.398438 C 806.46875 1155.441406 807.296875 1154.527344 808.167969 1153.65625 C 809.042969 1152.78125 809.953125 1151.953125 810.910156 1151.171875 C 811.863281 1150.386719 812.855469 1149.652344 813.878906 1148.96875 C 814.90625 1148.28125 815.964844 1147.648438 817.054688 1147.066406 C 818.140625 1146.484375 819.257812 1145.957031 820.398438 1145.484375 C 821.539062 1145.011719 822.699219 1144.597656 823.878906 1144.238281 C 825.0625 1143.878906 826.257812 1143.578125 827.46875 1143.339844 C 828.679688 1143.097656 829.898438 1142.917969 831.128906 1142.796875 C 832.355469 1142.675781 833.589844 1142.613281 834.824219 1142.613281 Z M 834.824219 1142.613281 " fill-opacity="1" fill-rule="nonzero"/><path fill="#ffffff" d="M 1534.363281 750.691406 C 1533.128906 750.691406 1531.898438 750.75 1530.667969 750.871094 C 1529.441406 750.992188 1528.21875 751.171875 1527.007812 751.414062 C 1525.796875 751.65625 1524.601562 751.953125 1523.421875 752.3125 C 1522.238281 752.671875 1521.078125 753.085938 1519.9375 753.558594 C 1518.796875 754.03125 1517.683594 754.558594 1516.59375 755.140625 C 1515.503906 755.722656 1514.449219 756.355469 1513.421875 757.042969 C 1512.394531 757.730469 1511.402344 758.464844 1510.449219 759.246094 C 1509.496094 760.03125 1508.582031 760.859375 1507.707031 761.730469 C 1506.835938 762.601562 1506.007812 763.515625 1505.226562 764.472656 C 1504.441406 765.425781 1503.707031 766.417969 1503.019531 767.441406 C 1502.335938 768.46875 1501.703125 769.527344 1501.121094 770.617188 C 1500.539062 771.703125 1500.011719 772.820312 1499.539062 773.960938 C 1499.066406 775.101562 1498.648438 776.261719 1498.292969 777.441406 C 1497.933594 778.625 1497.632812 779.820312 1497.390625 781.03125 C 1497.152344 782.242188 1496.972656 783.460938 1496.851562 784.691406 C 1496.730469 785.917969 1496.667969 787.152344 1496.667969 788.386719 L 1496.667969 1246.761719 C 1496.667969 1247.996094 1496.730469 1249.226562 1496.851562 1250.457031 C 1496.972656 1251.683594 1497.152344 1252.90625 1497.390625 1254.117188 C 1497.632812 1255.328125 1497.933594 1256.523438 1498.292969 1257.703125 C 1498.648438 1258.886719 1499.066406 1260.046875 1499.539062 1261.1875 C 1500.011719 1262.328125 1500.539062 1263.441406 1501.121094 1264.53125 C 1501.703125 1265.621094 1502.335938 1266.675781 1503.019531 1267.703125 C 1503.707031 1268.730469 1504.441406 1269.722656 1505.226562 1270.675781 C 1506.007812 1271.628906 1506.835938 1272.542969 1507.707031 1273.417969 C 1508.582031 1274.289062 1509.496094 1275.117188 1510.449219 1275.902344 C 1511.402344 1276.683594 1512.394531 1277.417969 1513.421875 1278.105469 C 1514.449219 1278.789062 1515.503906 1279.425781 1516.59375 1280.007812 C 1517.683594 1280.589844 1518.796875 1281.113281 1519.9375 1281.585938 C 1521.078125 1282.058594 1522.238281 1282.476562 1523.421875 1282.832031 C 1524.601562 1283.191406 1525.796875 1283.492188 1527.007812 1283.734375 C 1528.21875 1283.972656 1529.441406 1284.15625 1530.667969 1284.277344 C 1531.898438 1284.394531 1533.128906 1284.457031 1534.363281 1284.457031 C 1535.597656 1284.457031 1536.828125 1284.394531 1538.058594 1284.277344 C 1539.285156 1284.15625 1540.507812 1283.972656 1541.71875 1283.734375 C 1542.929688 1283.492188 1544.125 1283.191406 1545.304688 1282.832031 C 1546.488281 1282.476562 1547.648438 1282.058594 1548.789062 1281.585938 C 1549.929688 1281.113281 1551.042969 1280.589844 1552.132812 1280.007812 C 1553.222656 1279.425781 1554.28125 1278.789062 1555.304688 1278.105469 C 1556.332031 1277.417969 1557.324219 1276.683594 1558.277344 1275.902344 C 1559.230469 1275.117188 1560.144531 1274.289062 1561.019531 1273.417969 C 1561.890625 1272.542969 1562.71875 1271.628906 1563.503906 1270.675781 C 1564.285156 1269.722656 1565.019531 1268.730469 1565.707031 1267.703125 C 1566.390625 1266.675781 1567.027344 1265.621094 1567.609375 1264.53125 C 1568.191406 1263.441406 1568.71875 1262.328125 1569.191406 1261.1875 C 1569.660156 1260.046875 1570.078125 1258.886719 1570.4375 1257.703125 C 1570.792969 1256.523438 1571.09375 1255.328125 1571.335938 1254.117188 C 1571.574219 1252.90625 1571.757812 1251.683594 1571.878906 1250.457031 C 1572 1249.226562 1572.058594 1247.996094 1572.058594 1246.761719 L 1572.058594 788.386719 C 1572.058594 787.152344 1572 785.917969 1571.878906 784.691406 C 1571.757812 783.460938 1571.574219 782.242188 1571.335938 781.03125 C 1571.09375 779.820312 1570.792969 778.625 1570.4375 777.441406 C 1570.078125 776.261719 1569.660156 775.101562 1569.191406 773.960938 C 1568.71875 772.820312 1568.191406 771.703125 1567.609375 770.617188 C 1567.027344 769.527344 1566.390625 768.46875 1565.707031 767.441406 C 1565.019531 766.417969 1564.285156 765.425781 1563.503906 764.472656 C 1562.71875 763.515625 1561.890625 762.601562 1561.019531 761.730469 C 1560.144531 760.859375 1559.230469 760.03125 1558.277344 759.246094 C 1557.324219 758.464844 1556.332031 757.730469 1555.304688 757.042969 C 1554.28125 756.355469 1553.222656 755.722656 1552.132812 755.140625 C 1551.042969 754.558594 1549.929688 754.03125 1548.789062 753.558594 C 1547.648438 753.085938 1546.488281 752.671875 1545.304688 752.3125 C 1544.125 751.953125 1542.929688 751.65625 1541.71875 751.414062 C 1540.507812 751.171875 1539.285156 750.992188 1538.058594 750.871094 C 1536.828125 750.75 1535.597656 750.691406 1534.363281 750.691406 Z M 1534.363281 750.691406 " fill-opacity="1" fill-rule="nonzero"/><g clip-path="url(#a3a88d9ad2)"><path fill="#ffffff" d="M 1308.191406 847.566406 C 1306.957031 847.566406 1305.726562 847.628906 1304.496094 847.75 C 1303.269531 847.871094 1302.046875 848.050781 1300.835938 848.292969 C 1299.625 848.53125 1298.429688 848.832031 1297.25 849.191406 C 1296.066406 849.546875 1294.90625 849.964844 1293.765625 850.4375 C 1292.625 850.910156 1291.511719 851.4375 1290.421875 852.019531 C 1289.332031 852.601562 1288.273438 853.234375 1287.25 853.917969 C 1286.222656 854.605469 1285.230469 855.339844 1284.277344 856.125 C 1283.324219 856.90625 1282.410156 857.734375 1281.535156 858.609375 C 1280.664062 859.480469 1279.835938 860.394531 1279.050781 861.347656 C 1278.269531 862.304688 1277.535156 863.292969 1276.847656 864.320312 C 1276.164062 865.347656 1275.527344 866.402344 1274.945312 867.492188 C 1274.363281 868.582031 1273.835938 869.695312 1273.363281 870.835938 C 1272.894531 871.976562 1272.476562 873.136719 1272.117188 874.320312 C 1271.761719 875.5 1271.460938 876.699219 1271.21875 877.910156 C 1270.980469 879.121094 1270.796875 880.339844 1270.675781 881.566406 C 1270.554688 882.796875 1270.496094 884.027344 1270.496094 885.261719 L 1270.496094 1149.128906 C 1270.496094 1150.363281 1270.554688 1151.597656 1270.675781 1152.824219 C 1270.796875 1154.054688 1270.980469 1155.273438 1271.21875 1156.484375 C 1271.460938 1157.695312 1271.761719 1158.890625 1272.117188 1160.074219 C 1272.476562 1161.253906 1272.894531 1162.414062 1273.363281 1163.554688 C 1273.835938 1164.695312 1274.363281 1165.8125 1274.945312 1166.898438 C 1275.527344 1167.988281 1276.164062 1169.046875 1276.847656 1170.074219 C 1277.535156 1171.097656 1278.269531 1172.089844 1279.050781 1173.042969 C 1279.835938 1174 1280.664062 1174.910156 1281.535156 1175.785156 C 1282.410156 1176.65625 1283.324219 1177.484375 1284.277344 1178.269531 C 1285.230469 1179.050781 1286.222656 1179.785156 1287.25 1180.472656 C 1288.273438 1181.160156 1289.332031 1181.792969 1290.421875 1182.375 C 1291.511719 1182.957031 1292.625 1183.484375 1293.765625 1183.957031 C 1294.90625 1184.429688 1296.066406 1184.84375 1297.25 1185.203125 C 1298.429688 1185.5625 1299.625 1185.859375 1300.835938 1186.101562 C 1302.046875 1186.34375 1303.269531 1186.523438 1304.496094 1186.644531 C 1305.726562 1186.765625 1306.957031 1186.824219 1308.191406 1186.824219 C 1309.425781 1186.824219 1310.65625 1186.765625 1311.886719 1186.644531 C 1313.113281 1186.523438 1314.335938 1186.34375 1315.546875 1186.101562 C 1316.757812 1185.859375 1317.953125 1185.5625 1319.132812 1185.203125 C 1320.316406 1184.84375 1321.476562 1184.429688 1322.617188 1183.957031 C 1323.757812 1183.484375 1324.871094 1182.957031 1325.960938 1182.375 C 1327.050781 1181.792969 1328.105469 1181.160156 1329.132812 1180.472656 C 1330.160156 1179.785156 1331.152344 1179.050781 1332.105469 1178.269531 C 1333.058594 1177.484375 1333.972656 1176.65625 1334.847656 1175.785156 C 1335.71875 1174.910156 1336.546875 1174 1337.328125 1173.042969 C 1338.113281 1172.089844 1338.847656 1171.097656 1339.535156 1170.074219 C 1340.21875 1169.046875 1340.855469 1167.988281 1341.433594 1166.898438 C 1342.015625 1165.8125 1342.542969 1164.695312 1343.015625 1163.554688 C 1343.488281 1162.414062 1343.90625 1161.253906 1344.261719 1160.074219 C 1344.621094 1158.890625 1344.921875 1157.695312 1345.164062 1156.484375 C 1345.402344 1155.273438 1345.585938 1154.054688 1345.703125 1152.824219 C 1345.824219 1151.597656 1345.886719 1150.363281 1345.886719 1149.128906 L 1345.886719 885.261719 C 1345.886719 884.027344 1345.824219 882.796875 1345.703125 881.566406 C 1345.585938 880.339844 1345.402344 879.121094 1345.164062 877.910156 C 1344.921875 876.699219 1344.621094 875.5 1344.261719 874.320312 C 1343.90625 873.136719 1343.488281 871.976562 1343.015625 870.835938 C 1342.542969 869.695312 1342.015625 868.582031 1341.433594 867.492188 C 1340.855469 866.402344 1340.21875 865.347656 1339.535156 864.320312 C 1338.847656 863.292969 1338.113281 862.304688 1337.328125 861.347656 C 1336.546875 860.394531 1335.71875 859.480469 1334.847656 858.609375 C 1333.972656 857.734375 1333.058594 856.90625 1332.105469 856.125 C 1331.152344 855.339844 1330.160156 854.605469 1329.132812 853.917969 C 1328.105469 853.234375 1327.050781 852.601562 1325.960938 852.019531 C 1324.871094 851.4375 1323.757812 850.910156 1322.617188 850.4375 C 1321.476562 849.964844 1320.316406 849.546875 1319.132812 849.191406 C 1317.953125 848.832031 1316.757812 848.53125 1315.546875 848.292969 C 1314.335938 848.050781 1313.113281 847.871094 1311.886719 847.75 C 1310.65625 847.628906 1309.425781 847.566406 1308.191406 847.566406 Z M 1308.191406 847.566406 " fill-opacity="1" fill-rule="nonzero"/></g><path fill="#ffffff" d="M 1685.144531 867.546875 C 1685.144531 866.3125 1685.085938 865.078125 1684.964844 863.851562 C 1684.84375 862.621094 1684.660156 861.402344 1684.421875 860.191406 C 1684.179688 858.980469 1683.878906 857.785156 1683.523438 856.601562 C 1683.164062 855.421875 1682.75 854.261719 1682.277344 853.121094 C 1681.804688 851.980469 1681.277344 850.863281 1680.695312 849.777344 C 1680.113281 848.6875 1679.476562 847.628906 1678.792969 846.601562 C 1678.105469 845.578125 1677.371094 844.585938 1676.589844 843.632812 C 1675.804688 842.675781 1674.976562 841.765625 1674.105469 840.890625 C 1673.230469 840.019531 1672.316406 839.191406 1671.363281 838.40625 C 1670.410156 837.625 1669.417969 836.890625 1668.390625 836.203125 C 1667.367188 835.515625 1666.308594 834.882812 1665.21875 834.300781 C 1664.128906 833.71875 1663.015625 833.191406 1661.875 832.71875 C 1660.734375 832.246094 1659.574219 831.832031 1658.390625 831.472656 C 1657.210938 831.113281 1656.015625 830.816406 1654.804688 830.574219 C 1653.59375 830.332031 1652.375 830.152344 1651.144531 830.03125 C 1649.917969 829.910156 1648.683594 829.851562 1647.449219 829.851562 C 1646.214844 829.851562 1644.984375 829.910156 1643.753906 830.03125 C 1642.527344 830.152344 1641.308594 830.332031 1640.097656 830.574219 C 1638.886719 830.816406 1637.6875 831.113281 1636.507812 831.472656 C 1635.324219 831.832031 1634.164062 832.246094 1633.023438 832.71875 C 1631.882812 833.191406 1630.769531 833.71875 1629.679688 834.300781 C 1628.589844 834.882812 1627.535156 835.515625 1626.507812 836.203125 C 1625.480469 836.890625 1624.492188 837.625 1623.535156 838.40625 C 1622.582031 839.191406 1621.667969 840.019531 1620.796875 840.890625 C 1619.921875 841.765625 1619.09375 842.675781 1618.3125 843.632812 C 1617.527344 844.585938 1616.792969 845.578125 1616.105469 846.601562 C 1615.421875 847.628906 1614.789062 848.6875 1614.207031 849.777344 C 1613.625 850.863281 1613.097656 851.980469 1612.625 853.121094 C 1612.152344 854.261719 1611.734375 855.421875 1611.378906 856.601562 C 1611.019531 857.785156 1610.71875 858.980469 1610.480469 860.191406 C 1610.238281 861.402344 1610.058594 862.621094 1609.9375 863.851562 C 1609.816406 865.078125 1609.753906 866.3125 1609.753906 867.546875 L 1609.753906 1169.109375 C 1609.753906 1170.34375 1609.816406 1171.574219 1609.9375 1172.804688 C 1610.058594 1174.03125 1610.238281 1175.253906 1610.480469 1176.460938 C 1610.71875 1177.671875 1611.019531 1178.871094 1611.378906 1180.050781 C 1611.734375 1181.234375 1612.152344 1182.394531 1612.625 1183.535156 C 1613.097656 1184.675781 1613.625 1185.789062 1614.207031 1186.878906 C 1614.789062 1187.96875 1615.421875 1189.023438 1616.105469 1190.050781 C 1616.792969 1191.078125 1617.527344 1192.066406 1618.3125 1193.023438 C 1619.09375 1193.976562 1619.921875 1194.890625 1620.796875 1195.761719 C 1621.667969 1196.636719 1622.582031 1197.464844 1623.535156 1198.246094 C 1624.492188 1199.03125 1625.480469 1199.765625 1626.507812 1200.453125 C 1627.535156 1201.136719 1628.589844 1201.769531 1629.679688 1202.351562 C 1630.769531 1202.933594 1631.882812 1203.460938 1633.023438 1203.933594 C 1634.164062 1204.40625 1635.324219 1204.824219 1636.507812 1205.179688 C 1637.6875 1205.539062 1638.886719 1205.839844 1640.097656 1206.078125 C 1641.308594 1206.320312 1642.527344 1206.5 1643.753906 1206.621094 C 1644.984375 1206.742188 1646.214844 1206.804688 1647.449219 1206.804688 C 1648.683594 1206.804688 1649.917969 1206.742188 1651.144531 1206.621094 C 1652.375 1206.5 1653.59375 1206.320312 1654.804688 1206.078125 C 1656.015625 1205.839844 1657.210938 1205.539062 1658.390625 1205.179688 C 1659.574219 1204.824219 1660.734375 1204.40625 1661.875 1203.933594 C 1663.015625 1203.460938 1664.128906 1202.933594 1665.21875 1202.351562 C 1666.308594 1201.769531 1667.367188 1201.136719 1668.390625 1200.453125 C 1669.417969 1199.765625 1670.410156 1199.03125 1671.363281 1198.246094 C 1672.316406 1197.464844 1673.230469 1196.636719 1674.105469 1195.761719 C 1674.976562 1194.890625 1675.804688 1193.976562 1676.589844 1193.023438 C 1677.371094 1192.066406 1678.105469 1191.078125 1678.792969 1190.050781 C 1679.476562 1189.023438 1680.113281 1187.96875 1680.695312 1186.878906 C 1681.277344 1185.789062 1681.804688 1184.675781 1682.277344 1183.535156 C 1682.75 1182.394531 1683.164062 1181.234375 1683.523438 1180.050781 C 1683.878906 1178.871094 1684.179688 1177.671875 1684.421875 1176.460938 C 1684.660156 1175.253906 1684.84375 1174.03125 1684.964844 1172.804688 C 1685.085938 1171.574219 1685.144531 1170.34375 1685.144531 1169.109375 Z M 1685.144531 867.546875 " fill-opacity="1" fill-rule="nonzero"/><path fill="#ffffff" d="M 1421.277344 905.242188 C 1420.042969 905.242188 1418.8125 905.300781 1417.582031 905.421875 C 1416.355469 905.542969 1415.132812 905.722656 1413.921875 905.964844 C 1412.710938 906.207031 1411.515625 906.503906 1410.335938 906.863281 C 1409.152344 907.222656 1407.992188 907.636719 1406.851562 908.109375 C 1405.710938 908.582031 1404.597656 909.109375 1403.507812 909.691406 C 1402.417969 910.273438 1401.363281 910.90625 1400.335938 911.59375 C 1399.308594 912.28125 1398.316406 913.015625 1397.363281 913.796875 C 1396.410156 914.582031 1395.496094 915.410156 1394.621094 916.28125 C 1393.75 917.15625 1392.921875 918.070312 1392.136719 919.023438 C 1391.355469 919.976562 1390.621094 920.96875 1389.933594 921.992188 C 1389.25 923.019531 1388.613281 924.078125 1388.03125 925.167969 C 1387.449219 926.253906 1386.925781 927.371094 1386.453125 928.511719 C 1385.980469 929.652344 1385.5625 930.8125 1385.207031 931.992188 C 1384.847656 933.175781 1384.546875 934.371094 1384.304688 935.582031 C 1384.066406 936.792969 1383.882812 938.011719 1383.761719 939.242188 C 1383.640625 940.46875 1383.582031 941.703125 1383.582031 942.9375 L 1383.582031 1093.71875 C 1383.582031 1094.953125 1383.640625 1096.183594 1383.761719 1097.414062 C 1383.882812 1098.640625 1384.066406 1099.859375 1384.304688 1101.070312 C 1384.546875 1102.28125 1384.847656 1103.480469 1385.207031 1104.660156 C 1385.5625 1105.84375 1385.980469 1107.003906 1386.453125 1108.144531 C 1386.921875 1109.285156 1387.449219 1110.398438 1388.03125 1111.488281 C 1388.613281 1112.578125 1389.25 1113.632812 1389.933594 1114.660156 C 1390.621094 1115.6875 1391.355469 1116.675781 1392.136719 1117.632812 C 1392.921875 1118.585938 1393.75 1119.5 1394.621094 1120.371094 C 1395.496094 1121.246094 1396.410156 1122.074219 1397.363281 1122.855469 C 1398.316406 1123.640625 1399.308594 1124.375 1400.335938 1125.058594 C 1401.363281 1125.746094 1402.417969 1126.378906 1403.507812 1126.960938 C 1404.597656 1127.542969 1405.710938 1128.070312 1406.851562 1128.542969 C 1407.992188 1129.015625 1409.152344 1129.433594 1410.335938 1129.789062 C 1411.515625 1130.148438 1412.710938 1130.449219 1413.921875 1130.6875 C 1415.132812 1130.929688 1416.355469 1131.109375 1417.582031 1131.230469 C 1418.8125 1131.351562 1420.042969 1131.414062 1421.277344 1131.414062 C 1422.511719 1131.414062 1423.742188 1131.351562 1424.972656 1131.230469 C 1426.199219 1131.109375 1427.421875 1130.929688 1428.632812 1130.6875 C 1429.84375 1130.449219 1431.039062 1130.148438 1432.21875 1129.789062 C 1433.402344 1129.433594 1434.5625 1129.015625 1435.703125 1128.542969 C 1436.84375 1128.070312 1437.957031 1127.542969 1439.046875 1126.960938 C 1440.136719 1126.378906 1441.191406 1125.746094 1442.21875 1125.058594 C 1443.246094 1124.375 1444.238281 1123.640625 1445.191406 1122.855469 C 1446.144531 1122.074219 1447.058594 1121.246094 1447.933594 1120.371094 C 1448.804688 1119.5 1449.632812 1118.585938 1450.417969 1117.632812 C 1451.199219 1116.675781 1451.933594 1115.6875 1452.621094 1114.660156 C 1453.304688 1113.632812 1453.941406 1112.578125 1454.523438 1111.488281 C 1455.105469 1110.398438 1455.632812 1109.285156 1456.101562 1108.144531 C 1456.574219 1107.003906 1456.992188 1105.84375 1457.351562 1104.660156 C 1457.707031 1103.480469 1458.007812 1102.28125 1458.25 1101.070312 C 1458.488281 1099.859375 1458.671875 1098.640625 1458.792969 1097.414062 C 1458.914062 1096.183594 1458.972656 1094.953125 1458.972656 1093.71875 L 1458.972656 942.9375 C 1458.972656 941.703125 1458.914062 940.46875 1458.792969 939.242188 C 1458.671875 938.011719 1458.488281 936.792969 1458.25 935.582031 C 1458.007812 934.371094 1457.707031 933.175781 1457.347656 931.992188 C 1456.992188 930.8125 1456.574219 929.652344 1456.101562 928.511719 C 1455.632812 927.371094 1455.105469 926.253906 1454.523438 925.167969 C 1453.941406 924.078125 1453.304688 923.019531 1452.621094 921.992188 C 1451.933594 920.96875 1451.199219 919.976562 1450.417969 919.023438 C 1449.632812 918.070312 1448.804688 917.15625 1447.933594 916.28125 C 1447.058594 915.410156 1446.144531 914.582031 1445.191406 913.796875 C 1444.238281 913.015625 1443.246094 912.28125 1442.21875 911.59375 C 1441.191406 910.90625 1440.136719 910.273438 1439.046875 909.691406 C 1437.957031 909.109375 1436.84375 908.582031 1435.703125 908.109375 C 1434.5625 907.636719 1433.402344 907.222656 1432.21875 906.863281 C 1431.039062 906.503906 1429.84375 906.207031 1428.632812 905.964844 C 1427.421875 905.722656 1426.199219 905.542969 1424.972656 905.421875 C 1423.742188 905.300781 1422.511719 905.242188 1421.277344 905.242188 Z M 1421.277344 905.242188 " fill-opacity="1" fill-rule="nonzero"/></svg>